<svg width="24" height="24" viewBox="0 0 24 24" fill="none" xmlns="http://www.w3.org/2000/svg">
  <path d="M24 5.18855C23.117 5.55983 22.168 5.81065 21.1721 5.92349C22.1886 5.34587 22.9694 4.43121 23.337 3.34125C22.3855 3.87622 21.3318 4.26456 20.2102 4.47386C19.3121 3.5667 18.0324 3 16.6161 3C13.8969 3 11.6922 5.0897 11.6922 7.66728C11.6922 8.0331 11.7357 8.38937 11.8197 8.73096C7.72749 8.53634 4.09941 6.67811 1.67084 3.85426C1.247 4.54359 1.00412 5.3453 1.00412 6.2007C1.00412 7.82005 1.8734 9.24864 3.1946 10.0856C2.38748 10.0614 1.62824 9.8514 0.964401 9.50185C0.963841 9.5213 0.963841 9.54086 0.963841 9.56054C0.963841 11.8219 2.66113 13.7082 4.91365 14.1373C4.50049 14.244 4.06549 14.301 3.61644 14.301C3.29916 14.301 2.99077 14.2716 2.69005 14.2172C3.31669 16.0715 5.13505 17.4209 7.28977 17.4584C5.60461 18.7104 3.48157 19.4566 1.17456 19.4566C0.777121 19.4566 0.385201 19.4344 0 19.3913C2.17908 20.7157 4.76725 21.4884 7.54789 21.4884C16.6047 21.4884 21.5574 14.3764 21.5574 8.20839C21.5574 8.00603 21.5526 7.80481 21.5432 7.60449C22.5051 6.94656 23.3398 6.1246 23.9999 5.18855H24Z" fill="white"/>
</svg>