<svg width="193" height="108" viewBox="0 0 193 108" fill="none" xmlns="http://www.w3.org/2000/svg">
  <path d="M85.1 95.5L78 76.3C78 76.3 66.5 89.1 49.3 89.1C34.1 89.1 23.2 75.8 23.2 54.6C23.2 27.4 36.9 17.7 50.4 17.7C69.8 17.7 76 30.3 81.3 46.4L88.4 68.5C95.5 89.9 108.7 107.2 147 107.2C174.4 107.2 193 98.8 193 76.7C193 58.8 182.8 49.5 163.8 45.1L149.7 42C140 39.8 137.1 35.8 137.1 29.2C137.1 21.7 143.1 17.3 152.8 17.3C163.4 17.3 169.2 21.3 170 30.8L192.1 28.1C190.3 8.20001 176.6 0 154.1 0C134.2 0 114.8 7.50001 114.8 31.6C114.8 46.6 122.1 56.1 140.4 60.5L155.4 64C166.7 66.7 170.4 71.3 170.4 77.7C170.4 85.9 162.4 89.2 147.4 89.2C125.1 89.2 115.8 77.5 110.5 61.4L103.2 39.3C93.9 10.6 79.1 0 49.7 0C17.2 0 0 20.5 0 55.5C0 89.1 17.2 107.2 48.2 107.2C73.2 107.2 85.1 95.5 85.1 95.5Z" fill="white"/>
</svg>
