<svg width="128" height="128" viewBox="0 0 128 128" fill="none" xmlns="http://www.w3.org/2000/svg">
<rect width="128" height="128" fill="#2F2F2F"/>
<g clip-path="url(#clip0_26_492)">
<path d="M64 64C70.2617 64 75.3333 58.9283 75.3333 52.6667C75.3333 46.405 70.2617 41.3333 64 41.3333C57.7383 41.3333 52.6667 46.405 52.6667 52.6667C52.6667 58.9283 57.7383 64 64 64ZM64 69.6667C56.435 69.6667 41.3333 73.4633 41.3333 81V83.8333C41.3333 85.3917 42.6083 86.6667 44.1667 86.6667H83.8333C85.3917 86.6667 86.6667 85.3917 86.6667 83.8333V81C86.6667 73.4633 71.565 69.6667 64 69.6667Z" fill="#676767"/>
</g>
<defs>
<clipPath id="clip0_26_492">
<rect width="68" height="68" fill="white" transform="translate(30 30)"/>
</clipPath>
</defs>
</svg>
