<svg width="128" height="128" viewBox="0 0 128 128" fill="none" xmlns="http://www.w3.org/2000/svg">
<rect width="128" height="128" fill="#2F2F2F"/>
<g clip-path="url(#clip0_26_489)">
<path d="M64 78.9317L75.7584 86.0433C77.9117 87.3467 80.5467 85.42 79.98 82.9833L76.8634 69.61L87.2617 60.6C89.16 58.9567 88.14 55.84 85.6467 55.6417L71.9617 54.48L66.6067 41.8433C65.6434 39.5483 62.3567 39.5483 61.3934 41.8433L56.0384 54.4517L42.3534 55.6133C39.86 55.8117 38.84 58.9283 40.7384 60.5717L51.1367 69.5817L48.02 82.955C47.4534 85.3917 50.0884 87.3183 52.2417 86.015L64 78.9317Z" fill="#676767"/>
</g>
<defs>
<clipPath id="clip0_26_489">
<rect width="68" height="68" fill="white" transform="translate(30 30)"/>
</clipPath>
</defs>
</svg>
