<svg width="140" height="20" viewBox="0 0 140 20" fill="none" xmlns="http://www.w3.org/2000/svg">
<g clip-path="url(#clip0_131_31)">
<path d="M9.7874 3.60856C6.23168 0.0133317 0 2.5191 0 7.56694C0 10.2906 0 15.3748 0 18.0621C1.09971 18.0621 2.16276 18.0621 3.26247 18.0621C3.26247 15.3748 3.26247 10.2906 3.26247 7.56694C3.26247 6.25959 4.36218 5.17012 5.71848 5.17012C7.0748 5.17012 8.17449 6.25959 8.17449 7.56694C8.17449 10.2906 8.17449 15.3748 8.17449 18.0621C8.72435 18.0621 9.23756 18.0621 9.7874 18.0621C10.3373 18.0621 10.8871 18.0621 11.437 18.0621C11.437 15.3748 11.437 10.2906 11.437 7.56694C11.437 6.25959 12.5367 5.17012 13.893 5.17012C15.2126 5.17012 16.3124 6.25959 16.3124 7.56694C16.3124 10.2906 16.3124 15.3748 16.3124 18.0621C17.4121 18.0621 18.5117 18.0621 19.5748 18.0621C19.5748 15.3748 19.5748 10.2906 19.5748 7.56694C19.5748 2.5191 13.3798 0.0133317 9.7874 3.60856ZM39.1862 5.13381H46.5177V1.90173H39.1862C36.4737 1.90173 34.2743 4.08066 34.2743 6.76801C34.2743 9.1285 35.9605 11.0895 38.2332 11.5253C38.5265 11.598 38.8564 11.598 39.1862 11.598H42.7787C43.6951 11.598 44.4283 12.3243 44.4283 13.2322C44.4283 14.1037 43.6951 14.83 42.7787 14.83H35.4472V18.0621H42.7787C45.4912 18.0621 47.6907 15.9195 47.6907 13.2322C47.6907 10.8716 46.0044 8.91062 43.7318 8.47482C43.4385 8.4022 43.1086 8.36588 42.7787 8.36588H39.1862C38.2699 8.36588 37.5367 7.63957 37.5367 6.76801C37.5367 5.86011 38.2699 5.13381 39.1862 5.13381Z" fill="white"/>
<path d="M31.0084 1.86536V10.799C31.0084 13.0505 29.1755 14.83 26.9027 14.83C24.6667 14.83 22.8338 13.0505 22.8338 10.799V1.86536H19.5714V10.799C19.5714 14.83 22.8705 18.0984 26.9027 18.0984C30.9716 18.0984 34.2708 14.83 34.2708 10.799V1.86536H31.0084Z" fill="white"/>
<path d="M63.0799 18.116L59.3115 11.6293H57.2624V18.116H54.5773V1.89929H60.23C61.4862 1.89929 62.5461 2.11708 63.4096 2.55263C64.289 2.98818 64.9406 3.57151 65.3645 4.30263C65.8041 5.03374 66.024 5.85041 66.024 6.75263C66.024 7.81041 65.7099 8.77484 65.0819 9.64596C64.4695 10.5015 63.5195 11.0848 62.232 11.396L66.2831 18.116H63.0799ZM57.2624 9.50596H60.23C61.2349 9.50596 61.9886 9.25708 62.4911 8.75929C63.0092 8.26151 63.2683 7.59263 63.2683 6.75263C63.2683 5.91263 63.0171 5.25929 62.5146 4.79263C62.0121 4.31041 61.2507 4.06929 60.23 4.06929H57.2624V9.50596ZM80.9998 11.3726C80.9998 11.8548 80.9683 12.2904 80.9055 12.6793H70.9898C71.0682 13.706 71.453 14.5305 72.1439 15.1526C72.8347 15.7748 73.6826 16.086 74.6876 16.086C76.1321 16.086 77.1528 15.4871 77.7495 14.2893H80.6465C80.2538 15.4715 79.5395 16.4438 78.5032 17.206C77.4825 17.9526 76.2106 18.326 74.6876 18.326C73.4471 18.326 72.3323 18.0538 71.3431 17.5093C70.3696 16.9493 69.6002 16.1715 69.0349 15.176C68.4853 14.1648 68.2106 12.9982 68.2106 11.676C68.2106 10.3537 68.4774 9.19484 69.0114 8.19929C69.5609 7.18818 70.3225 6.41041 71.296 5.86596C72.2852 5.32151 73.4158 5.04929 74.6876 5.04929C75.9124 5.04929 77.0035 5.31374 77.9614 5.84263C78.9192 6.37151 79.665 7.11818 80.199 8.08263C80.7328 9.03151 80.9998 10.1282 80.9998 11.3726ZM78.197 10.5326C78.1812 9.55263 77.8279 8.76708 77.1371 8.17596C76.4462 7.58484 75.5904 7.28929 74.5698 7.28929C73.6434 7.28929 72.8505 7.58484 72.191 8.17596C71.5315 8.75151 71.1389 9.53708 71.0134 10.5326H78.197ZM100.718 5.25929L96.6903 18.116H93.864L91.2496 8.61929L88.6352 18.116H85.8089L81.7578 5.25929H84.49L87.1985 15.596L89.9542 5.25929H92.757L95.3949 15.5493L98.0799 5.25929H100.718ZM103.737 3.55596C103.25 3.55596 102.842 3.39263 102.512 3.06596C102.183 2.73929 102.018 2.33484 102.018 1.85263C102.018 1.3704 102.183 0.965959 102.512 0.639293C102.842 0.312625 103.25 0.149292 103.737 0.149292C104.208 0.149292 104.609 0.312625 104.938 0.639293C105.268 0.965959 105.433 1.3704 105.433 1.85263C105.433 2.33484 105.268 2.73929 104.938 3.06596C104.609 3.39263 104.208 3.55596 103.737 3.55596ZM105.056 5.25929V18.116H102.371V5.25929H105.056ZM114.776 5.04929C115.796 5.04929 116.707 5.25929 117.508 5.67929C118.324 6.09929 118.96 6.72151 119.415 7.54596C119.871 8.37041 120.099 9.36596 120.099 10.5326V18.116H117.437V10.9293C117.437 9.77818 117.147 8.89929 116.566 8.29263C115.985 7.67041 115.192 7.35929 114.187 7.35929C113.182 7.35929 112.381 7.67041 111.784 8.29263C111.203 8.89929 110.913 9.77818 110.913 10.9293V18.116H108.228V5.25929H110.913V6.72929C111.353 6.20041 111.91 5.78818 112.585 5.49263C113.276 5.19708 114.006 5.04929 114.776 5.04929ZM122.275 11.6293C122.275 10.3382 122.542 9.19484 123.076 8.19929C123.626 7.20374 124.363 6.43374 125.29 5.88929C126.232 5.32929 127.276 5.04929 128.422 5.04929C129.27 5.04929 130.103 5.23596 130.919 5.60929C131.751 5.96708 132.411 6.44929 132.897 7.05596V0.849293H135.606V18.116H132.897V16.1793C132.458 16.8015 131.846 17.3148 131.06 17.7193C130.291 18.1238 129.404 18.326 128.399 18.326C127.268 18.326 126.232 18.046 125.29 17.486C124.363 16.9105 123.626 16.1171 123.076 15.106C122.542 14.0793 122.275 12.9204 122.275 11.6293ZM132.897 11.676C132.897 10.7893 132.709 10.0193 132.332 9.36596C131.971 8.71263 131.492 8.21484 130.896 7.87263C130.299 7.53041 129.655 7.35929 128.964 7.35929C128.273 7.35929 127.63 7.53041 127.033 7.87263C126.436 8.19929 125.949 8.68929 125.573 9.34263C125.211 9.98041 125.031 10.7426 125.031 11.6293C125.031 12.516 125.211 13.2937 125.573 13.9626C125.949 14.6315 126.436 15.1448 127.033 15.5026C127.645 15.8448 128.289 16.016 128.964 16.016C129.655 16.016 130.299 15.8448 130.896 15.5026C131.492 15.1605 131.971 14.6626 132.332 14.0093C132.709 13.3404 132.897 12.5626 132.897 11.676Z" fill="white"/>
<path d="M50.836 0V20" stroke="white"/>
</g>
<defs>
<clipPath id="clip0_131_31">
<rect width="140" height="20" fill="white"/>
</clipPath>
</defs>
</svg>
