<svg width="128" height="128" viewBox="0 0 128 128" fill="none" xmlns="http://www.w3.org/2000/svg">
<rect width="128" height="128" fill="#2F2F2F"/>
<path d="M64 77.94C67.9667 77.94 71.3667 76.5942 74.2 73.9025C77.0333 71.2108 78.45 67.91 78.45 64C78.45 59.9767 77.0475 56.5625 74.2425 53.7575C71.4375 50.9525 68.0233 49.55 64 49.55C60.09 49.55 56.7892 50.9667 54.0975 53.8C51.4058 56.6333 50.06 60.0333 50.06 64C50.06 67.91 51.4058 71.2108 54.0975 73.9025C56.7892 76.5942 60.09 77.94 64 77.94ZM64 67.4C63.0367 67.4 62.2292 67.0742 61.5775 66.4225C60.9258 65.7708 60.6 64.9633 60.6 64C60.6 63.0367 60.9258 62.2292 61.5775 61.5775C62.2292 60.9258 63.0367 60.6 64 60.6C64.9633 60.6 65.7708 60.9258 66.4225 61.5775C67.0742 62.2292 67.4 63.0367 67.4 64C67.4 64.9633 67.0742 65.7708 66.4225 66.4225C65.7708 67.0742 64.9633 67.4 64 67.4ZM64 98C59.3533 98 54.9617 97.1075 50.825 95.3225C46.6883 93.5375 43.0758 91.1008 39.9875 88.0125C36.8992 84.9242 34.4625 81.3117 32.6775 77.175C30.8925 73.0383 30 68.6467 30 64C30 59.2967 30.8925 54.8767 32.6775 50.74C34.4625 46.6033 36.8992 43.005 39.9875 39.945C43.0758 36.885 46.6883 34.4625 50.825 32.6775C54.9617 30.8925 59.3533 30 64 30C68.7033 30 73.1233 30.8925 77.26 32.6775C81.3967 34.4625 84.995 36.885 88.055 39.945C91.115 43.005 93.5375 46.6033 95.3225 50.74C97.1075 54.8767 98 59.2967 98 64C98 68.6467 97.1075 73.0383 95.3225 77.175C93.5375 81.3117 91.115 84.9242 88.055 88.0125C84.995 91.1008 81.3967 93.5375 77.26 95.3225C73.1233 97.1075 68.7033 98 64 98ZM64 92.9C72.0467 92.9 78.875 90.0808 84.485 84.4425C90.095 78.8042 92.9 71.99 92.9 64C92.9 55.9533 90.095 49.125 84.485 43.515C78.875 37.905 72.0467 35.1 64 35.1C56.01 35.1 49.1958 37.905 43.5575 43.515C37.9192 49.125 35.1 55.9533 35.1 64C35.1 71.99 37.9192 78.8042 43.5575 84.4425C49.1958 90.0808 56.01 92.9 64 92.9Z" fill="#676767"/>
</svg>
