<svg width="753" height="228" viewBox="0 0 753 228" fill="none" xmlns="http://www.w3.org/2000/svg">
<path d="M162.082 223.406L5.26631 224V188.36L77.7343 128.069C89.8123 118.169 98.3263 109.457 103.276 101.933C108.424 94.211 110.998 85.895 110.998 76.985C110.998 65.897 108.325 57.482 102.979 51.74C97.8313 45.8 90.3073 42.83 80.4073 42.83C70.1113 42.83 62.0923 46.196 56.3503 52.928C50.8063 59.66 48.0343 69.164 48.0343 81.44H0.217312C0.217312 56.69 7.44431 36.989 21.8983 22.337C36.5503 7.487 55.9543 0.0619976 80.1103 0.0619976C105.256 0.0619976 124.858 6.596 138.916 19.664C153.172 32.534 160.3 50.651 160.3 74.015C160.3 100.151 145.153 125.891 114.859 151.235L81.8923 178.856H162.082V223.406ZM189.249 114.704C189.249 80.648 198.06 53.027 215.682 31.841C233.304 10.655 256.47 0.0619976 285.18 0.0619976C313.89 0.0619976 337.056 10.655 354.678 31.841C372.3 53.027 381.111 80.648 381.111 114.704C381.111 149.156 372.597 176.678 355.569 197.27C338.541 217.664 315.078 227.861 285.18 227.861C255.282 227.861 231.819 217.664 214.791 197.27C197.763 176.678 189.249 149.156 189.249 114.704ZM236.769 114.704C236.769 138.068 240.927 155.789 249.243 167.867C257.757 179.747 269.736 185.687 285.18 185.687C300.624 185.687 312.504 179.747 320.82 167.867C329.334 155.789 333.591 138.068 333.591 114.704C333.591 90.746 329.334 72.728 320.82 60.65C312.504 48.374 300.624 42.236 285.18 42.236C269.736 42.236 257.757 48.374 249.243 60.65C240.927 72.728 236.769 90.746 236.769 114.704ZM569.935 223.406L413.119 224V188.36L485.587 128.069C497.665 118.169 506.179 109.457 511.129 101.933C516.277 94.211 518.851 85.895 518.851 76.985C518.851 65.897 516.178 57.482 510.832 51.74C505.684 45.8 498.16 42.83 488.26 42.83C477.964 42.83 469.945 46.196 464.203 52.928C458.659 59.66 455.887 69.164 455.887 81.44H408.07C408.07 56.69 415.297 36.989 429.751 22.337C444.403 7.487 463.807 0.0619976 487.963 0.0619976C513.109 0.0619976 532.711 6.596 546.769 19.664C561.025 32.534 568.153 50.651 568.153 74.015C568.153 100.151 553.006 125.891 522.712 151.235L489.745 178.856H569.935V223.406ZM667.124 120.644H635.048V89.756C635.246 89.558 635.543 89.36 635.939 89.162C636.335 88.766 636.632 88.469 636.83 88.271L684.647 46.394H601.784V4.22H744.938V42.533L698.606 83.222C714.446 87.974 727.316 96.389 737.216 108.467C747.314 120.545 752.363 135.494 752.363 153.314C752.363 175.886 744.443 194.003 728.603 207.665C712.763 221.129 693.359 227.861 670.391 227.861C648.017 227.861 629.306 221.228 614.258 207.962C599.21 194.498 591.686 175.886 591.686 152.126H639.206C639.206 162.818 642.077 171.035 647.819 176.777C653.759 182.519 661.679 185.39 671.579 185.39C680.885 185.39 688.409 182.42 694.151 176.48C700.091 170.54 703.061 162.719 703.061 153.017C703.061 143.513 700.091 135.791 694.151 129.851C688.409 123.713 679.4 120.644 667.124 120.644Z" fill="white"/>
</svg>
