<svg width="38" height="37" viewBox="0 0 38 37" fill="none" xmlns="http://www.w3.org/2000/svg">
  <path d="M18.6185 0.202334C14.2033 0.182469 9.92617 1.75779 6.55687 4.64474C3.18757 7.53169 0.947451 11.5407 0.239723 15.95C-0.468005 20.3594 0.403147 24.8795 2.69637 28.6969C4.9896 32.5142 8.55427 35.3779 12.7488 36.7727C13.6756 36.929 13.9845 36.3038 13.9845 35.835V32.7093C8.88709 33.8033 7.80582 30.2088 7.80582 30.2088C6.87902 28.0208 5.64328 27.3957 5.64328 27.3957C4.09861 26.3017 5.79775 26.3017 5.79775 26.3017C7.65135 26.3017 8.73262 28.1771 8.73262 28.1771C10.2773 30.9902 13.0577 30.2088 14.139 29.7399C14.139 28.4896 14.7568 27.7082 15.2202 27.2394C11.0496 26.7705 6.72455 25.2077 6.72455 17.8624C6.72455 15.987 7.49688 14.2678 8.73262 13.0176C8.42369 12.3924 7.80582 10.517 8.73262 8.01651C8.73262 8.01651 10.2773 7.54766 13.9845 9.89191C17.0194 9.06215 20.2176 9.06215 23.2525 9.89191C26.8053 7.54766 28.3499 8.01651 28.3499 8.01651C29.2767 10.517 28.6589 12.3924 28.3499 13.0176C29.7401 14.2678 30.358 15.987 30.358 18.0187C30.358 25.2077 26.0329 26.7705 21.8623 27.2394C22.6346 27.8645 23.2525 28.8022 23.2525 30.6776V35.835C23.2525 36.3038 23.407 36.929 24.4883 36.7727C28.6827 35.3779 32.2474 32.5142 34.5406 28.6969C36.8339 24.8795 37.705 20.3594 36.9973 15.95C36.2896 11.5407 34.0494 7.53169 30.6801 4.64474C27.3108 1.75779 23.0337 0.182469 18.6185 0.202334" fill="white"/>
</svg>