<svg width="38" height="24" viewBox="0 0 38 24" fill="none" xmlns="http://www.w3.org/2000/svg">
  <g clip-path="url(#clip0)">
      <path d="M7.79862 6.99681C4.96541 4.10519 0 6.12056 0 10.1805C0 12.3711 0 16.4603 0 18.6218C0.876249 18.6218 1.72329 18.6218 2.59953 18.6218C2.59953 16.4603 2.59953 12.3711 2.59953 10.1805C2.59953 9.12902 3.47579 8.25277 4.5565 8.25277C5.6372 8.25277 6.51345 9.12902 6.51345 10.1805C6.51345 12.3711 6.51345 16.4603 6.51345 18.6218C6.95157 18.6218 7.36049 18.6218 7.79862 18.6218C8.23674 18.6218 8.67486 18.6218 9.11299 18.6218C9.11299 16.4603 9.11299 12.3711 9.11299 10.1805C9.11299 9.12902 9.98927 8.25277 11.07 8.25277C12.1214 8.25277 12.9977 9.12902 12.9977 10.1805C12.9977 12.3711 12.9977 16.4603 12.9977 18.6218C13.874 18.6218 14.7502 18.6218 15.5972 18.6218C15.5972 16.4603 15.5972 12.3711 15.5972 10.1805C15.5972 6.12056 10.661 4.10519 7.79862 6.99681ZM31.2237 8.22356H37.0653V5.62402H31.2237C29.0622 5.62402 27.3098 7.37652 27.3098 9.53793C27.3098 11.4365 28.6533 13.0137 30.4642 13.3642C30.6979 13.4226 30.9608 13.4226 31.2237 13.4226H34.0861C34.8162 13.4226 35.4004 14.0068 35.4004 14.737C35.4004 15.438 34.8162 16.0222 34.0861 16.0222H28.2445V18.6218H34.0861C36.2475 18.6218 38 16.8984 38 14.737C38 12.8385 36.6564 11.2612 34.8455 10.9107C34.6118 10.8523 34.3489 10.8231 34.0861 10.8231H31.2237C30.4934 10.8231 29.9093 10.2389 29.9093 9.53793C29.9093 8.80773 30.4934 8.22356 31.2237 8.22356Z" fill="white"/>
      <path d="M24.7074 5.59473V12.78C24.7074 14.5909 23.247 16.0221 21.4361 16.0221C19.6544 16.0221 18.194 14.5909 18.194 12.78V5.59473H15.5945V12.78C15.5945 16.0221 18.2232 18.6509 21.4361 18.6509C24.6782 18.6509 27.307 16.0221 27.307 12.78V5.59473H24.7074Z" fill="white"/>
  </g>
  <defs>
      <clipPath id="clip0">
          <rect width="38" height="24" fill="white"/>
      </clipPath>
  </defs>
</svg>
