<svg width="761" height="228" viewBox="0 -3 761 235" fill="none" xmlns="http://www.w3.org/2000/svg">
<path d="M162.862 223.406V178.856H82.6716L115.639 151.235C142.963 128.366 161.08 104.012 161.08 74.015C161.08 27.089 131.083 0.0619976 80.8896 0.0619976C32.4786 0.0619976 0.996609 32.138 0.996609 81.44H48.8136C48.8136 56.789 60.6936 42.83 81.1866 42.83C100.789 42.83 111.778 54.71 111.778 76.985C111.778 95.102 101.977 108.764 78.5136 128.069L6.04561 188.36V224L162.862 223.406ZM190.028 114.704C190.028 182.717 225.668 227.861 285.959 227.861C346.25 227.861 381.89 182.717 381.89 114.704C381.89 46.691 343.28 0.0619976 285.959 0.0619976C228.638 0.0619976 190.028 46.691 190.028 114.704ZM237.548 114.704C237.548 65.996 255.368 42.236 285.959 42.236C316.55 42.236 334.37 65.996 334.37 114.704C334.37 161.927 316.55 185.687 285.959 185.687C255.368 185.687 237.548 161.927 237.548 114.704ZM570.715 223.406V178.856H490.525L523.492 151.235C550.816 128.366 568.933 104.012 568.933 74.015C568.933 27.089 538.936 0.0619976 488.743 0.0619976C440.332 0.0619976 408.85 32.138 408.85 81.44H456.667C456.667 56.789 468.547 42.83 489.04 42.83C508.642 42.83 519.631 54.71 519.631 76.985C519.631 95.102 509.83 108.764 486.367 128.069L413.899 188.36V224L570.715 223.406ZM760.864 223.406V178.856H680.674L713.641 151.235C740.965 128.366 759.082 104.012 759.082 74.015C759.082 27.089 729.085 0.0619976 678.892 0.0619976C630.481 0.0619976 598.999 32.138 598.999 81.44H646.816C646.816 56.789 658.696 42.83 679.189 42.83C698.791 42.83 709.78 54.71 709.78 76.985C709.78 95.102 699.979 108.764 676.516 128.069L604.048 188.36V224L760.864 223.406Z" fill="white" pathlength="1" />
</svg>
