<svg width="139" height="37" viewBox="0 0 139 37" fill="none" xmlns="http://www.w3.org/2000/svg">
<path d="M52.0882 16V0.0357942H48.8649V16H52.0882ZM66.451 4.61746C67.2114 3.86577 67.9718 3.11409 68.7326 2.36242C63.6624 -2.64877 54.9708 0.894853 54.9708 7.98209C54.9708 15.1051 63.6624 18.6488 68.7326 13.6376C67.9718 12.8859 67.2114 12.1342 66.451 11.3825C63.4089 14.3892 58.1937 12.2416 58.1937 7.98209C58.1937 3.72259 63.4089 1.61074 66.451 4.61746ZM87.7314 8.01791C87.7314 3.61521 84.146 0.0357942 79.6917 0.0357942C75.237 0.0357942 71.6157 3.61521 71.6157 8.01791C71.6157 12.4206 75.237 15.9642 79.6917 15.9642C84.146 15.9642 87.7314 12.4206 87.7314 8.01791ZM74.8386 8.01791C74.8386 5.36911 77.0117 3.22147 79.6917 3.22147C82.3354 3.22147 84.5081 5.36911 84.5081 8.01791C84.5081 10.6667 82.3354 12.7785 79.6917 12.7785C77.0117 12.7785 74.8386 10.6667 74.8386 8.01791ZM93.8531 0.0357942C92.767 0.0357942 91.7163 0.0357942 90.6302 0.0357942C90.6302 2.72036 90.6302 5.36911 90.6302 8.01791C90.6302 10.6667 90.6302 13.3154 90.6302 16C91.7163 16 92.767 16 93.8531 16C93.8531 13.3154 93.8531 10.6667 93.8531 8.01791C93.8531 5.36911 96.0262 3.22147 98.7062 3.22147C98.7062 2.18344 98.7062 1.10962 98.7062 0.0357942C96.8229 0.0357942 95.338 0.536911 93.8531 1.64653C93.8531 1.10962 93.8531 0.572705 93.8531 0.0357942ZM112.916 0V8.80538C112.916 11.0246 111.105 12.7785 108.86 12.7785C106.65 12.7785 104.84 11.0246 104.84 8.80538V0H101.616V8.80538C101.616 12.7785 104.876 16 108.86 16C112.879 16 116.139 12.7785 116.139 8.80538V0H112.916ZM128.709 1.71812C125.196 -1.8255 119.039 0.644297 119.039 5.61968C119.039 8.30425 119.039 13.3154 119.039 15.9642C120.126 15.9642 121.176 15.9642 122.263 15.9642C122.263 13.3154 122.263 8.30425 122.263 5.61968C122.263 4.33107 123.349 3.25727 124.689 3.25727C126.029 3.25727 127.115 4.33107 127.115 5.61968C127.115 8.30425 127.115 13.3154 127.115 15.9642C127.659 15.9642 128.166 15.9642 128.709 15.9642C129.252 15.9642 129.795 15.9642 130.339 15.9642C130.339 13.3154 130.339 8.30425 130.339 5.61968C130.339 4.33107 131.425 3.25727 132.765 3.25727C134.069 3.25727 135.155 4.33107 135.155 5.61968C135.155 8.30425 135.155 13.3154 135.155 15.9642C136.242 15.9642 137.328 15.9642 138.378 15.9642C138.378 13.3154 138.378 8.30425 138.378 5.61968C138.378 0.644297 132.258 -1.8255 128.709 1.71812Z" fill="white"/>
<path d="M9.67342 1.68989C6.1593 -1.86966 0 0.611237 0 5.60899C0 8.30563 0 13.3393 0 16C1.08698 16 2.13762 16 3.2246 16C3.2246 13.3393 3.2246 8.30563 3.2246 5.60899C3.2246 4.31459 4.31159 3.23596 5.65174 3.23596C6.9923 3.23596 8.07928 4.31459 8.07928 5.60899C8.07928 8.30563 8.07928 13.3393 8.07928 16C8.62277 16 9.12992 16 9.67342 16C10.2169 16 10.7604 16 11.3039 16C11.3039 13.3393 11.3039 8.30563 11.3039 5.60899C11.3039 4.31459 12.3905 3.23596 13.731 3.23596C15.0352 3.23596 16.1222 4.31459 16.1222 5.60899C16.1222 8.30563 16.1222 13.3393 16.1222 16C17.2092 16 18.2962 16 19.3468 16C19.3468 13.3393 19.3468 8.30563 19.3468 5.60899C19.3468 0.611237 13.2239 -1.86966 9.67342 1.68989ZM38.73 3.2H45.9759V0H38.73C36.0489 0 33.8749 2.15731 33.8749 4.81797C33.8749 7.15507 35.5417 9.09664 37.788 9.52811C38.0779 9.60003 38.4037 9.60002 38.73 9.60002H42.2805C43.1861 9.60002 43.9109 10.3191 43.9109 11.218C43.9109 12.0809 43.1861 12.8 42.2805 12.8H35.0342V16H42.2805C44.9616 16 47.1351 13.8787 47.1351 11.218C47.1351 8.88089 45.4687 6.93932 43.2225 6.50785C42.9326 6.43598 42.6063 6.4 42.2805 6.4H38.73C37.8239 6.4 37.0995 5.6809 37.0995 4.81797C37.0995 3.9191 37.8239 3.2 38.73 3.2Z" fill="white"/>
<path d="M30.8988 0V8.80538C30.8988 11.0246 29.0657 12.7785 26.7924 12.7785C24.556 12.7785 22.7224 11.0246 22.7224 8.80538V0H19.4595V8.80538C19.4595 12.7785 22.7592 16 26.7924 16C30.8624 16 34.1622 12.7785 34.1622 8.80538V0H30.8988Z" fill="white"/>
<path d="M46.1212 26.18C46.1212 26.71 45.9962 27.21 45.7462 27.68C45.4962 28.15 45.0962 28.535 44.5462 28.835C43.9962 29.125 43.2912 29.27 42.4312 29.27H40.5412V33.5H38.8312V23.075H42.4312C43.2312 23.075 43.9062 23.215 44.4562 23.495C45.0162 23.765 45.4312 24.135 45.7012 24.605C45.9812 25.075 46.1212 25.6 46.1212 26.18ZM42.4312 27.875C43.0812 27.875 43.5662 27.73 43.8862 27.44C44.2062 27.14 44.3662 26.72 44.3662 26.18C44.3662 25.04 43.7212 24.47 42.4312 24.47H40.5412V27.875H42.4312ZM49.2371 26.435C49.4871 26.015 49.8171 25.69 50.2271 25.46C50.6471 25.22 51.1421 25.1 51.7121 25.1V26.87H51.2771C50.6071 26.87 50.0971 27.04 49.7471 27.38C49.4071 27.72 49.2371 28.31 49.2371 29.15V33.5H47.5271V25.235H49.2371V26.435ZM60.6339 29.165C60.6339 29.475 60.6139 29.755 60.5739 30.005H54.2589C54.3089 30.665 54.5539 31.195 54.9939 31.595C55.4339 31.995 55.9739 32.195 56.6139 32.195C57.5339 32.195 58.1839 31.81 58.5639 31.04H60.4089C60.1589 31.8 59.7039 32.425 59.0439 32.915C58.3939 33.395 57.5839 33.635 56.6139 33.635C55.8239 33.635 55.1139 33.46 54.4839 33.11C53.8639 32.75 53.3739 32.25 53.0139 31.61C52.6639 30.96 52.4889 30.21 52.4889 29.36C52.4889 28.51 52.6589 27.765 52.9989 27.125C53.3489 26.475 53.8339 25.975 54.4539 25.625C55.0839 25.275 55.8039 25.1 56.6139 25.1C57.3939 25.1 58.0889 25.27 58.6989 25.61C59.3089 25.95 59.7839 26.43 60.1239 27.05C60.4639 27.66 60.6339 28.365 60.6339 29.165ZM58.8489 28.625C58.8389 27.995 58.6139 27.49 58.1739 27.11C57.7339 26.73 57.1889 26.54 56.5389 26.54C55.9489 26.54 55.4439 26.73 55.0239 27.11C54.6039 27.48 54.3539 27.985 54.2739 28.625H58.8489ZM65.0917 33.635C64.4417 33.635 63.8567 33.52 63.3367 33.29C62.8267 33.05 62.4217 32.73 62.1217 32.33C61.8217 31.92 61.6617 31.465 61.6417 30.965H63.4117C63.4417 31.315 63.6067 31.61 63.9067 31.85C64.2167 32.08 64.6017 32.195 65.0617 32.195C65.5417 32.195 65.9117 32.105 66.1717 31.925C66.4417 31.735 66.5767 31.495 66.5767 31.205C66.5767 30.895 66.4267 30.665 66.1267 30.515C65.8367 30.365 65.3717 30.2 64.7317 30.02C64.1117 29.85 63.6067 29.685 63.2167 29.525C62.8267 29.365 62.4867 29.12 62.1967 28.79C61.9167 28.46 61.7767 28.025 61.7767 27.485C61.7767 27.045 61.9067 26.645 62.1667 26.285C62.4267 25.915 62.7967 25.625 63.2767 25.415C63.7667 25.205 64.3267 25.1 64.9567 25.1C65.8967 25.1 66.6517 25.34 67.2217 25.82C67.8017 26.29 68.1117 26.935 68.1517 27.755H66.4417C66.4117 27.385 66.2617 27.09 65.9917 26.87C65.7217 26.65 65.3567 26.54 64.8967 26.54C64.4467 26.54 64.1017 26.625 63.8617 26.795C63.6217 26.965 63.5017 27.19 63.5017 27.47C63.5017 27.69 63.5817 27.875 63.7417 28.025C63.9017 28.175 64.0967 28.295 64.3267 28.385C64.5567 28.465 64.8967 28.57 65.3467 28.7C65.9467 28.86 66.4367 29.025 66.8167 29.195C67.2067 29.355 67.5417 29.595 67.8217 29.915C68.1017 30.235 68.2467 30.66 68.2567 31.19C68.2567 31.66 68.1267 32.08 67.8667 32.45C67.6067 32.82 67.2367 33.11 66.7567 33.32C66.2867 33.53 65.7317 33.635 65.0917 33.635ZM77.4544 29.165C77.4544 29.475 77.4344 29.755 77.3944 30.005H71.0794C71.1294 30.665 71.3744 31.195 71.8144 31.595C72.2544 31.995 72.7944 32.195 73.4344 32.195C74.3544 32.195 75.0044 31.81 75.3844 31.04H77.2294C76.9794 31.8 76.5244 32.425 75.8644 32.915C75.2144 33.395 74.4044 33.635 73.4344 33.635C72.6444 33.635 71.9344 33.46 71.3044 33.11C70.6844 32.75 70.1944 32.25 69.8344 31.61C69.4844 30.96 69.3094 30.21 69.3094 29.36C69.3094 28.51 69.4794 27.765 69.8194 27.125C70.1694 26.475 70.6544 25.975 71.2744 25.625C71.9044 25.275 72.6244 25.1 73.4344 25.1C74.2144 25.1 74.9094 25.27 75.5194 25.61C76.1294 25.95 76.6044 26.43 76.9444 27.05C77.2844 27.66 77.4544 28.365 77.4544 29.165ZM75.6694 28.625C75.6594 27.995 75.4344 27.49 74.9944 27.11C74.5544 26.73 74.0094 26.54 73.3594 26.54C72.7694 26.54 72.2644 26.73 71.8444 27.11C71.4244 27.48 71.1744 27.985 71.0944 28.625H75.6694ZM83.0823 25.1C83.7323 25.1 84.3123 25.235 84.8223 25.505C85.3423 25.775 85.7473 26.175 86.0373 26.705C86.3273 27.235 86.4723 27.875 86.4723 28.625V33.5H84.7773V28.88C84.7773 28.14 84.5923 27.575 84.2223 27.185C83.8523 26.785 83.3473 26.585 82.7073 26.585C82.0673 26.585 81.5573 26.785 81.1773 27.185C80.8073 27.575 80.6223 28.14 80.6223 28.88V33.5H78.9123V25.235H80.6223V26.18C80.9023 25.84 81.2573 25.575 81.6873 25.385C82.1273 25.195 82.5923 25.1 83.0823 25.1ZM90.4235 26.63V31.205C90.4235 31.515 90.4935 31.74 90.6335 31.88C90.7835 32.01 91.0335 32.075 91.3835 32.075H92.4335V33.5H91.0835C90.3135 33.5 89.7235 33.32 89.3135 32.96C88.9035 32.6 88.6985 32.015 88.6985 31.205V26.63H87.7235V25.235H88.6985V23.18H90.4235V25.235H92.4335V26.63H90.4235ZM96.7845 33.635C96.1345 33.635 95.5495 33.52 95.0295 33.29C94.5195 33.05 94.1145 32.73 93.8145 32.33C93.5145 31.92 93.3545 31.465 93.3345 30.965H95.1045C95.1345 31.315 95.2995 31.61 95.5995 31.85C95.9095 32.08 96.2945 32.195 96.7545 32.195C97.2345 32.195 97.6045 32.105 97.8645 31.925C98.1345 31.735 98.2695 31.495 98.2695 31.205C98.2695 30.895 98.1195 30.665 97.8195 30.515C97.5295 30.365 97.0645 30.2 96.4245 30.02C95.8045 29.85 95.2995 29.685 94.9095 29.525C94.5195 29.365 94.1795 29.12 93.8895 28.79C93.6095 28.46 93.4695 28.025 93.4695 27.485C93.4695 27.045 93.5995 26.645 93.8595 26.285C94.1195 25.915 94.4895 25.625 94.9695 25.415C95.4595 25.205 96.0195 25.1 96.6495 25.1C97.5895 25.1 98.3445 25.34 98.9145 25.82C99.4945 26.29 99.8045 26.935 99.8445 27.755H98.1345C98.1045 27.385 97.9545 27.09 97.6845 26.87C97.4145 26.65 97.0495 26.54 96.5895 26.54C96.1395 26.54 95.7945 26.625 95.5545 26.795C95.3145 26.965 95.1945 27.19 95.1945 27.47C95.1945 27.69 95.2745 27.875 95.4345 28.025C95.5945 28.175 95.7895 28.295 96.0195 28.385C96.2495 28.465 96.5895 28.57 97.0395 28.7C97.6395 28.86 98.1295 29.025 98.5095 29.195C98.8995 29.355 99.2345 29.595 99.5145 29.915C99.7945 30.235 99.9395 30.66 99.9495 31.19C99.9495 31.66 99.8195 32.08 99.5595 32.45C99.2995 32.82 98.9295 33.11 98.4495 33.32C97.9795 33.53 97.4245 33.635 96.7845 33.635Z" fill="white"/>
</svg>
