<svg width="457" height="170" viewBox="0 0 457 170" fill="none" xmlns="http://www.w3.org/2000/svg">
<path d="M103.382 89.9624L96.7829 71.846C96.7829 71.846 86.0601 83.9247 69.9801 83.9247C55.7516 83.9247 45.6496 71.4295 45.6496 51.4374C45.6496 25.8232 58.4317 16.6605 71.0109 16.6605C89.1541 16.6605 94.9267 28.5302 99.8762 43.7331L106.475 64.5581C113.071 84.7568 125.443 101 161.112 101C186.681 101 204 93.0874 204 72.2632C204 55.3953 194.514 46.6482 176.782 42.4829L163.586 39.5677C154.515 37.4855 151.835 33.7366 151.835 27.489C151.835 20.4085 157.401 16.2432 166.474 16.2432C176.371 16.2432 181.731 19.9921 182.557 28.9466L203.175 26.4471C201.525 7.70516 188.742 0 167.711 0C149.156 0 131.011 7.08048 131.011 29.7795C131.011 43.9405 137.815 52.8958 154.927 57.0603L168.949 60.3911C179.464 62.8907 182.968 67.2634 182.968 73.3036C182.968 81.0071 175.546 84.1313 161.525 84.1313C140.701 84.1313 132.042 73.0945 127.093 57.8916L120.289 37.0682C111.631 9.99565 97.8146 0 70.3916 0C40.0831 0 24 19.3666 24 52.2695C24 83.9239 40.0832 100.999 68.95 100.999C92.2458 100.999 103.382 89.9624 103.382 89.9624Z" fill="white"/>
<path d="M69.2837 141V123H72.6837V137.825H80.4337V141H69.2837ZM86.3091 141.375C85.3424 141.375 84.5216 141.192 83.8466 140.825C83.1799 140.45 82.6716 139.954 82.3216 139.337C81.9799 138.712 81.8091 138.025 81.8091 137.275C81.8091 136.65 81.9049 136.079 82.0966 135.562C82.2882 135.046 82.5966 134.592 83.0216 134.2C83.4549 133.8 84.0341 133.467 84.7591 133.2C85.2591 133.017 85.8549 132.854 86.5466 132.712C87.2382 132.571 88.0216 132.437 88.8966 132.312C89.7716 132.179 90.7341 132.033 91.7841 131.875L90.5591 132.55C90.5591 131.75 90.3674 131.162 89.9841 130.787C89.6007 130.412 88.9591 130.225 88.0591 130.225C87.5591 130.225 87.0382 130.346 86.4966 130.587C85.9549 130.829 85.5757 131.258 85.3591 131.875L82.2841 130.9C82.6257 129.783 83.2674 128.875 84.2091 128.175C85.1507 127.475 86.4341 127.125 88.0591 127.125C89.2507 127.125 90.3091 127.308 91.2341 127.675C92.1591 128.042 92.8591 128.675 93.3341 129.575C93.6007 130.075 93.7591 130.575 93.8091 131.075C93.8591 131.575 93.8841 132.133 93.8841 132.75V141H90.9091V138.225L91.3341 138.8C90.6757 139.708 89.9632 140.367 89.1966 140.775C88.4382 141.175 87.4757 141.375 86.3091 141.375ZM87.0341 138.7C87.6591 138.7 88.1841 138.592 88.6091 138.375C89.0424 138.15 89.3841 137.896 89.6341 137.612C89.8924 137.329 90.0674 137.092 90.1591 136.9C90.3341 136.533 90.4341 136.108 90.4591 135.625C90.4924 135.133 90.5091 134.725 90.5091 134.4L91.5091 134.65C90.5007 134.817 89.6841 134.958 89.0591 135.075C88.4341 135.183 87.9299 135.283 87.5466 135.375C87.1632 135.467 86.8257 135.567 86.5341 135.675C86.2007 135.808 85.9299 135.954 85.7216 136.112C85.5216 136.262 85.3716 136.429 85.2716 136.612C85.1799 136.796 85.1341 137 85.1341 137.225C85.1341 137.533 85.2091 137.8 85.3591 138.025C85.5174 138.242 85.7382 138.408 86.0216 138.525C86.3049 138.642 86.6424 138.7 87.0341 138.7ZM102.409 141.375C100.709 141.375 99.3343 140.992 98.2843 140.225C97.2426 139.45 96.6093 138.358 96.3843 136.95L99.8593 136.425C100.001 137.058 100.313 137.554 100.797 137.912C101.288 138.271 101.909 138.45 102.659 138.45C103.276 138.45 103.751 138.333 104.084 138.1C104.418 137.858 104.584 137.525 104.584 137.1C104.584 136.833 104.518 136.621 104.384 136.462C104.251 136.296 103.951 136.133 103.484 135.975C103.026 135.817 102.309 135.608 101.334 135.35C100.234 135.067 99.3551 134.75 98.6968 134.4C98.0384 134.05 97.5634 133.633 97.2718 133.15C96.9801 132.658 96.8343 132.067 96.8343 131.375C96.8343 130.508 97.0551 129.758 97.4968 129.125C97.9384 128.483 98.5593 127.992 99.3593 127.65C100.168 127.3 101.118 127.125 102.209 127.125C103.268 127.125 104.205 127.287 105.022 127.612C105.838 127.937 106.497 128.4 106.997 129C107.505 129.6 107.818 130.308 107.934 131.125L104.459 131.75C104.401 131.25 104.184 130.854 103.809 130.562C103.434 130.271 102.926 130.1 102.284 130.05C101.659 130.008 101.155 130.092 100.772 130.3C100.397 130.508 100.209 130.808 100.209 131.2C100.209 131.433 100.288 131.629 100.447 131.787C100.613 131.946 100.951 132.108 101.459 132.275C101.976 132.442 102.759 132.658 103.809 132.925C104.834 133.192 105.655 133.504 106.272 133.862C106.897 134.212 107.351 134.637 107.634 135.137C107.918 135.629 108.059 136.225 108.059 136.925C108.059 138.308 107.559 139.396 106.559 140.187C105.559 140.979 104.176 141.375 102.409 141.375ZM118.906 141C117.973 141.175 117.056 141.25 116.156 141.225C115.264 141.208 114.464 141.054 113.756 140.762C113.056 140.462 112.523 139.983 112.156 139.325C111.823 138.708 111.648 138.083 111.631 137.45C111.614 136.808 111.606 136.083 111.606 135.275V123.75H115.006V135.075C115.006 135.6 115.01 136.075 115.019 136.5C115.035 136.917 115.123 137.25 115.281 137.5C115.581 137.975 116.06 138.233 116.719 138.275C117.377 138.317 118.106 138.283 118.906 138.175V141ZM109.306 130.125V127.5H118.906V130.125H109.306ZM122.465 141V137.6H125.865V141H122.465ZM131.047 141V127.55C131.047 127.208 131.056 126.821 131.072 126.387C131.089 125.954 131.156 125.517 131.272 125.075C131.397 124.633 131.622 124.233 131.947 123.875C132.364 123.408 132.814 123.092 133.297 122.925C133.789 122.75 134.264 122.658 134.722 122.65C135.181 122.633 135.572 122.625 135.897 122.625H137.572V125.375H136.022C135.489 125.375 135.093 125.512 134.835 125.787C134.577 126.054 134.447 126.375 134.447 126.75V141H131.047ZM128.922 130.125V127.5H137.572V130.125H128.922ZM155.816 141V133.025C155.816 132.133 155.603 131.442 155.178 130.95C154.762 130.45 154.183 130.2 153.441 130.2C152.966 130.2 152.553 130.312 152.203 130.537C151.853 130.754 151.578 131.062 151.378 131.462C151.187 131.854 151.091 132.308 151.091 132.825L149.666 131.875C149.666 130.95 149.883 130.133 150.316 129.425C150.758 128.717 151.345 128.167 152.078 127.775C152.82 127.375 153.641 127.175 154.541 127.175C156.083 127.175 157.245 127.633 158.028 128.55C158.82 129.458 159.216 130.65 159.216 132.125V141H155.816ZM139.541 141V127.5H142.541V131.975H142.966V141H139.541ZM147.691 141V133.025C147.691 132.133 147.478 131.442 147.053 130.95C146.637 130.45 146.058 130.2 145.316 130.2C144.608 130.2 144.037 130.446 143.603 130.937C143.178 131.421 142.966 132.05 142.966 132.825L141.541 131.825C141.541 130.942 141.762 130.15 142.203 129.45C142.645 128.75 143.237 128.196 143.978 127.787C144.728 127.379 145.566 127.175 146.491 127.175C147.549 127.175 148.416 127.4 149.091 127.85C149.774 128.3 150.278 128.9 150.603 129.65C150.928 130.4 151.091 131.225 151.091 132.125V141H147.691ZM19.8101 164L25.3101 146H30.3851L35.8851 164H32.3851L27.4851 148.125H28.1351L23.3101 164H19.8101ZM23.1101 160.25V157.075H32.6101V160.25H23.1101ZM43.1505 164.4C42.0922 164.4 41.2297 164.221 40.563 163.862C39.8963 163.504 39.3755 163.05 39.0005 162.5C38.6338 161.95 38.3713 161.379 38.213 160.788C38.0547 160.187 37.9588 159.642 37.9255 159.15C37.8922 158.658 37.8755 158.3 37.8755 158.075V150.5H41.3255V156.875C41.3255 157.183 41.3422 157.579 41.3755 158.062C41.4088 158.537 41.513 159.017 41.688 159.5C41.863 159.983 42.1463 160.387 42.538 160.712C42.938 161.037 43.5005 161.2 44.2255 161.2C44.5172 161.2 44.8297 161.154 45.163 161.062C45.4963 160.971 45.8088 160.796 46.1005 160.537C46.3922 160.271 46.6297 159.883 46.813 159.375C47.0047 158.858 47.1005 158.183 47.1005 157.35L49.0505 158.275C49.0505 159.342 48.8338 160.342 48.4005 161.275C47.9672 162.208 47.313 162.962 46.438 163.537C45.5713 164.113 44.4755 164.4 43.1505 164.4ZM47.5255 164V159.525H47.1005V150.5H50.5255V164H47.5255ZM59.494 164.375C58.2524 164.375 57.1649 164.063 56.2315 163.437C55.2982 162.812 54.569 161.962 54.044 160.887C53.5274 159.812 53.269 158.6 53.269 157.25C53.269 155.875 53.5315 154.654 54.0565 153.587C54.5899 152.512 55.3357 151.667 56.294 151.05C57.2524 150.433 58.3774 150.125 59.669 150.125C60.9524 150.125 62.0315 150.437 62.9065 151.062C63.7815 151.687 64.444 152.537 64.894 153.612C65.344 154.687 65.569 155.9 65.569 157.25C65.569 158.6 65.3399 159.812 64.8815 160.887C64.4315 161.962 63.7565 162.812 62.8565 163.437C61.9565 164.063 60.8357 164.375 59.494 164.375ZM60.044 161.35C60.8024 161.35 61.4065 161.179 61.8565 160.837C62.3149 160.496 62.644 160.017 62.844 159.4C63.044 158.783 63.144 158.067 63.144 157.25C63.144 156.433 63.044 155.717 62.844 155.1C62.644 154.483 62.3232 154.004 61.8815 153.662C61.4482 153.321 60.8774 153.15 60.169 153.15C59.4107 153.15 58.7857 153.337 58.294 153.712C57.8107 154.079 57.4524 154.575 57.219 155.2C56.9857 155.817 56.869 156.5 56.869 157.25C56.869 158.008 56.9815 158.7 57.2065 159.325C57.4315 159.942 57.7774 160.433 58.244 160.8C58.7107 161.167 59.3107 161.35 60.044 161.35ZM63.144 164V154.75H62.719V146H66.144V164H63.144ZM69.894 148.625V145.625H73.294V148.625H69.894ZM69.894 164V150.5H73.294V164H69.894ZM83.1165 164.375C81.7582 164.375 80.5665 164.071 79.5415 163.462C78.5165 162.854 77.7165 162.017 77.1415 160.95C76.5748 159.875 76.2915 158.642 76.2915 157.25C76.2915 155.842 76.5832 154.604 77.1665 153.537C77.7498 152.462 78.554 151.625 79.579 151.025C80.604 150.425 81.7832 150.125 83.1165 150.125C84.4748 150.125 85.6665 150.429 86.6915 151.037C87.7248 151.646 88.529 152.487 89.104 153.562C89.679 154.629 89.9665 155.858 89.9665 157.25C89.9665 158.65 89.6748 159.887 89.0915 160.962C88.5165 162.029 87.7123 162.867 86.679 163.475C85.654 164.075 84.4665 164.375 83.1165 164.375ZM83.1165 161.2C84.2082 161.2 85.0207 160.833 85.554 160.1C86.0957 159.358 86.3665 158.408 86.3665 157.25C86.3665 156.05 86.0915 155.092 85.5415 154.375C84.9998 153.658 84.1915 153.3 83.1165 153.3C82.3748 153.3 81.7665 153.467 81.2915 153.8C80.8165 154.133 80.4623 154.596 80.229 155.187C80.004 155.779 79.8915 156.467 79.8915 157.25C79.8915 158.458 80.1623 159.421 80.704 160.137C81.254 160.846 82.0582 161.2 83.1165 161.2ZM97.6241 164.375C95.9241 164.375 94.5491 163.992 93.4991 163.225C92.4575 162.45 91.8241 161.358 91.5991 159.95L95.0741 159.425C95.2158 160.058 95.5283 160.554 96.0116 160.912C96.5033 161.271 97.1241 161.45 97.8741 161.45C98.4908 161.45 98.9658 161.333 99.2991 161.1C99.6325 160.858 99.7991 160.525 99.7991 160.1C99.7991 159.833 99.7325 159.621 99.5991 159.462C99.4658 159.296 99.1658 159.133 98.6991 158.975C98.2408 158.817 97.5241 158.608 96.5491 158.35C95.4491 158.067 94.57 157.75 93.9116 157.4C93.2533 157.05 92.7783 156.633 92.4866 156.15C92.195 155.658 92.0491 155.067 92.0491 154.375C92.0491 153.508 92.27 152.758 92.7116 152.125C93.1533 151.483 93.7741 150.992 94.5741 150.65C95.3825 150.3 96.3325 150.125 97.4241 150.125C98.4825 150.125 99.42 150.287 100.237 150.612C101.053 150.937 101.712 151.4 102.212 152C102.72 152.6 103.032 153.308 103.149 154.125L99.6741 154.75C99.6158 154.25 99.3991 153.854 99.0241 153.562C98.6491 153.271 98.1408 153.1 97.4991 153.05C96.8741 153.008 96.37 153.092 95.9866 153.3C95.6116 153.508 95.4241 153.808 95.4241 154.2C95.4241 154.433 95.5033 154.629 95.6616 154.787C95.8283 154.946 96.1658 155.108 96.6741 155.275C97.1908 155.442 97.9741 155.658 99.0241 155.925C100.049 156.192 100.87 156.504 101.487 156.862C102.112 157.212 102.566 157.637 102.849 158.137C103.132 158.629 103.274 159.225 103.274 159.925C103.274 161.308 102.774 162.396 101.774 163.187C100.774 163.979 99.3908 164.375 97.6241 164.375ZM111.971 164.375C110.571 164.375 109.371 164.063 108.371 163.437C107.371 162.812 106.604 161.962 106.071 160.887C105.538 159.812 105.271 158.6 105.271 157.25C105.271 155.883 105.546 154.662 106.096 153.587C106.654 152.512 107.438 151.667 108.446 151.05C109.454 150.433 110.646 150.125 112.021 150.125C113.613 150.125 114.946 150.529 116.021 151.337C117.104 152.137 117.796 153.233 118.096 154.625L114.696 155.525C114.496 154.825 114.146 154.279 113.646 153.887C113.154 153.496 112.596 153.3 111.971 153.3C111.254 153.3 110.667 153.475 110.208 153.825C109.75 154.167 109.413 154.637 109.196 155.237C108.979 155.829 108.871 156.5 108.871 157.25C108.871 158.425 109.129 159.379 109.646 160.112C110.171 160.837 110.946 161.2 111.971 161.2C112.738 161.2 113.321 161.025 113.721 160.675C114.121 160.325 114.421 159.825 114.621 159.175L118.096 159.9C117.713 161.333 116.988 162.437 115.921 163.212C114.854 163.988 113.538 164.375 111.971 164.375ZM120.596 164V150.5H123.596V153.8L123.271 153.375C123.446 152.908 123.68 152.483 123.971 152.1C124.263 151.717 124.621 151.4 125.046 151.15C125.371 150.95 125.725 150.796 126.109 150.687C126.492 150.571 126.888 150.5 127.296 150.475C127.705 150.442 128.113 150.45 128.521 150.5V153.675C128.146 153.558 127.709 153.521 127.209 153.562C126.717 153.596 126.271 153.708 125.871 153.9C125.471 154.083 125.134 154.329 124.859 154.637C124.584 154.937 124.375 155.296 124.234 155.712C124.092 156.121 124.021 156.583 124.021 157.1V164H120.596ZM136.73 164.375C135.371 164.375 134.18 164.071 133.155 163.462C132.13 162.854 131.33 162.017 130.755 160.95C130.188 159.875 129.905 158.642 129.905 157.25C129.905 155.842 130.196 154.604 130.78 153.537C131.363 152.462 132.167 151.625 133.192 151.025C134.217 150.425 135.396 150.125 136.73 150.125C138.088 150.125 139.28 150.429 140.305 151.037C141.338 151.646 142.142 152.487 142.717 153.562C143.292 154.629 143.58 155.858 143.58 157.25C143.58 158.65 143.288 159.887 142.705 160.962C142.13 162.029 141.326 162.867 140.292 163.475C139.267 164.075 138.08 164.375 136.73 164.375ZM136.73 161.2C137.821 161.2 138.634 160.833 139.167 160.1C139.709 159.358 139.98 158.408 139.98 157.25C139.98 156.05 139.705 155.092 139.155 154.375C138.613 153.658 137.805 153.3 136.73 153.3C135.988 153.3 135.38 153.467 134.905 153.8C134.43 154.133 134.076 154.596 133.842 155.187C133.617 155.779 133.505 156.467 133.505 157.25C133.505 158.458 133.776 159.421 134.317 160.137C134.867 160.846 135.671 161.2 136.73 161.2ZM152.954 164.375C151.612 164.375 150.491 164.063 149.591 163.437C148.691 162.812 148.012 161.962 147.554 160.887C147.104 159.812 146.879 158.6 146.879 157.25C146.879 155.9 147.104 154.687 147.554 153.612C148.004 152.537 148.666 151.687 149.541 151.062C150.416 150.437 151.495 150.125 152.779 150.125C154.07 150.125 155.195 150.433 156.154 151.05C157.112 151.667 157.854 152.512 158.379 153.587C158.912 154.654 159.179 155.875 159.179 157.25C159.179 158.6 158.916 159.812 158.391 160.887C157.874 161.962 157.149 162.812 156.216 163.437C155.283 164.063 154.195 164.375 152.954 164.375ZM146.304 164V146H149.729V154.75H149.304V164H146.304ZM152.404 161.35C153.137 161.35 153.737 161.167 154.204 160.8C154.67 160.433 155.016 159.942 155.241 159.325C155.466 158.7 155.579 158.008 155.579 157.25C155.579 156.5 155.462 155.817 155.229 155.2C154.995 154.575 154.633 154.079 154.141 153.712C153.658 153.337 153.037 153.15 152.279 153.15C151.57 153.15 150.995 153.321 150.554 153.662C150.12 154.004 149.804 154.483 149.604 155.1C149.404 155.717 149.304 156.433 149.304 157.25C149.304 158.067 149.404 158.783 149.604 159.4C149.804 160.017 150.129 160.496 150.579 160.837C151.037 161.179 151.645 161.35 152.404 161.35ZM168.554 164.375C167.213 164.375 166.092 164.063 165.192 163.437C164.292 162.812 163.613 161.962 163.154 160.887C162.704 159.812 162.479 158.6 162.479 157.25C162.479 155.9 162.704 154.687 163.154 153.612C163.604 152.537 164.267 151.687 165.142 151.062C166.017 150.437 167.096 150.125 168.379 150.125C169.671 150.125 170.796 150.433 171.754 151.05C172.713 151.667 173.454 152.512 173.979 153.587C174.513 154.654 174.779 155.875 174.779 157.25C174.779 158.6 174.517 159.812 173.992 160.887C173.475 161.962 172.75 162.812 171.817 163.437C170.883 164.063 169.796 164.375 168.554 164.375ZM161.904 164V146H165.329V154.75H164.904V164H161.904ZM168.004 161.35C168.738 161.35 169.338 161.167 169.804 160.8C170.271 160.433 170.617 159.942 170.842 159.325C171.067 158.7 171.179 158.008 171.179 157.25C171.179 156.5 171.063 155.817 170.829 155.2C170.596 154.575 170.233 154.079 169.742 153.712C169.258 153.337 168.638 153.15 167.879 153.15C167.171 153.15 166.596 153.321 166.154 153.662C165.721 154.004 165.404 154.483 165.204 155.1C165.004 155.717 164.904 156.433 164.904 157.25C164.904 158.067 165.004 158.783 165.204 159.4C165.404 160.017 165.729 160.496 166.179 160.837C166.638 161.179 167.246 161.35 168.004 161.35ZM177.78 164V145.625H181.18V164H177.78ZM191.202 164.375C189.819 164.375 188.598 164.079 187.54 163.487C186.49 162.887 185.665 162.067 185.065 161.025C184.473 159.975 184.177 158.775 184.177 157.425C184.177 155.95 184.469 154.667 185.052 153.575C185.636 152.483 186.44 151.637 187.465 151.037C188.49 150.429 189.669 150.125 191.002 150.125C192.419 150.125 193.623 150.458 194.615 151.125C195.606 151.792 196.34 152.729 196.815 153.937C197.29 155.146 197.456 156.567 197.315 158.2H193.952V156.95C193.952 155.575 193.731 154.587 193.29 153.987C192.856 153.379 192.144 153.075 191.152 153.075C189.994 153.075 189.14 153.429 188.59 154.137C188.048 154.837 187.777 155.875 187.777 157.25C187.777 158.508 188.048 159.483 188.59 160.175C189.14 160.858 189.944 161.2 191.002 161.2C191.669 161.2 192.24 161.054 192.715 160.762C193.19 160.471 193.552 160.05 193.802 159.5L197.202 160.475C196.694 161.708 195.89 162.667 194.79 163.35C193.698 164.033 192.502 164.375 191.202 164.375ZM186.727 158.2V155.675H195.677V158.2H186.727ZM200.137 164V150.5H203.137V153.8L202.812 153.375C202.987 152.908 203.221 152.483 203.512 152.1C203.804 151.717 204.162 151.4 204.587 151.15C204.912 150.95 205.266 150.796 205.65 150.687C206.033 150.571 206.429 150.5 206.837 150.475C207.246 150.442 207.654 150.45 208.062 150.5V153.675C207.687 153.558 207.25 153.521 206.75 153.562C206.258 153.596 205.812 153.708 205.412 153.9C205.012 154.083 204.675 154.329 204.4 154.637C204.125 154.937 203.916 155.296 203.775 155.712C203.633 156.121 203.562 156.583 203.562 157.1V164H200.137Z" fill="white"/>
<path d="M286.034 164V149.175H280.359V146H295.109V149.175H289.434V164H286.034ZM306.318 164V157.625C306.318 157.317 306.301 156.925 306.268 156.45C306.235 155.967 306.131 155.483 305.956 155C305.781 154.517 305.493 154.112 305.093 153.787C304.701 153.462 304.143 153.3 303.418 153.3C303.126 153.3 302.814 153.346 302.481 153.437C302.147 153.529 301.835 153.708 301.543 153.975C301.251 154.233 301.01 154.617 300.818 155.125C300.635 155.633 300.543 156.308 300.543 157.15L298.593 156.225C298.593 155.158 298.81 154.158 299.243 153.225C299.676 152.292 300.326 151.537 301.193 150.962C302.068 150.387 303.168 150.1 304.493 150.1C305.551 150.1 306.414 150.279 307.081 150.637C307.747 150.996 308.264 151.45 308.631 152C309.006 152.55 309.272 153.125 309.431 153.725C309.589 154.317 309.685 154.858 309.718 155.35C309.751 155.842 309.768 156.2 309.768 156.425V164H306.318ZM297.093 164V146H300.118V155.25H300.543V164H297.093ZM319.287 164.375C317.903 164.375 316.683 164.079 315.624 163.487C314.574 162.887 313.749 162.067 313.149 161.025C312.558 159.975 312.262 158.775 312.262 157.425C312.262 155.95 312.553 154.667 313.137 153.575C313.72 152.483 314.524 151.637 315.549 151.037C316.574 150.429 317.753 150.125 319.087 150.125C320.503 150.125 321.708 150.458 322.699 151.125C323.691 151.792 324.424 152.729 324.899 153.937C325.374 155.146 325.541 156.567 325.399 158.2H322.037V156.95C322.037 155.575 321.816 154.587 321.374 153.987C320.941 153.379 320.228 153.075 319.237 153.075C318.078 153.075 317.224 153.429 316.674 154.137C316.133 154.837 315.862 155.875 315.862 157.25C315.862 158.508 316.133 159.483 316.674 160.175C317.224 160.858 318.028 161.2 319.087 161.2C319.753 161.2 320.324 161.054 320.799 160.762C321.274 160.471 321.637 160.05 321.887 159.5L325.287 160.475C324.778 161.708 323.974 162.667 322.874 163.35C321.783 164.033 320.587 164.375 319.287 164.375ZM314.812 158.2V155.675H323.762V158.2H314.812ZM331.728 164.375C330.761 164.375 329.94 164.192 329.265 163.825C328.598 163.45 328.09 162.954 327.74 162.337C327.398 161.712 327.228 161.025 327.228 160.275C327.228 159.65 327.323 159.079 327.515 158.562C327.707 158.046 328.015 157.592 328.44 157.2C328.873 156.8 329.453 156.467 330.178 156.2C330.678 156.017 331.273 155.854 331.965 155.712C332.657 155.571 333.44 155.437 334.315 155.312C335.19 155.179 336.153 155.033 337.203 154.875L335.978 155.55C335.978 154.75 335.786 154.162 335.403 153.787C335.019 153.412 334.378 153.225 333.478 153.225C332.978 153.225 332.457 153.346 331.915 153.587C331.373 153.829 330.994 154.258 330.778 154.875L327.703 153.9C328.044 152.783 328.686 151.875 329.628 151.175C330.569 150.475 331.853 150.125 333.478 150.125C334.669 150.125 335.728 150.308 336.653 150.675C337.578 151.042 338.278 151.675 338.753 152.575C339.019 153.075 339.178 153.575 339.228 154.075C339.278 154.575 339.303 155.133 339.303 155.75V164H336.328V161.225L336.753 161.8C336.094 162.708 335.382 163.367 334.615 163.775C333.857 164.175 332.894 164.375 331.728 164.375ZM332.453 161.7C333.078 161.7 333.603 161.592 334.028 161.375C334.461 161.15 334.803 160.896 335.053 160.612C335.311 160.329 335.486 160.092 335.578 159.9C335.753 159.533 335.853 159.108 335.878 158.625C335.911 158.133 335.928 157.725 335.928 157.4L336.928 157.65C335.919 157.817 335.103 157.958 334.478 158.075C333.853 158.183 333.348 158.283 332.965 158.375C332.582 158.467 332.244 158.567 331.953 158.675C331.619 158.808 331.348 158.954 331.14 159.112C330.94 159.262 330.79 159.429 330.69 159.612C330.598 159.796 330.553 160 330.553 160.225C330.553 160.533 330.628 160.8 330.778 161.025C330.936 161.242 331.157 161.408 331.44 161.525C331.723 161.642 332.061 161.7 332.453 161.7ZM350.653 164C349.719 164.175 348.803 164.25 347.903 164.225C347.011 164.208 346.211 164.054 345.503 163.762C344.803 163.462 344.269 162.983 343.903 162.325C343.569 161.708 343.394 161.083 343.378 160.45C343.361 159.808 343.353 159.083 343.353 158.275V146.75H346.753V158.075C346.753 158.6 346.757 159.075 346.765 159.5C346.782 159.917 346.869 160.25 347.028 160.5C347.328 160.975 347.807 161.233 348.465 161.275C349.124 161.317 349.853 161.283 350.653 161.175V164ZM341.053 153.125V150.5H350.653V153.125H341.053ZM353.661 164V150.5H356.661V153.8L356.336 153.375C356.511 152.908 356.744 152.483 357.036 152.1C357.328 151.717 357.686 151.4 358.111 151.15C358.436 150.95 358.79 150.796 359.174 150.687C359.557 150.571 359.953 150.5 360.361 150.475C360.769 150.442 361.178 150.45 361.586 150.5V153.675C361.211 153.558 360.774 153.521 360.274 153.562C359.782 153.596 359.336 153.708 358.936 153.9C358.536 154.083 358.199 154.329 357.924 154.637C357.649 154.937 357.44 155.296 357.299 155.712C357.157 156.121 357.086 156.583 357.086 157.1V164H353.661ZM369.995 164.375C368.611 164.375 367.391 164.079 366.332 163.487C365.282 162.887 364.457 162.067 363.857 161.025C363.266 159.975 362.97 158.775 362.97 157.425C362.97 155.95 363.261 154.667 363.845 153.575C364.428 152.483 365.232 151.637 366.257 151.037C367.282 150.429 368.461 150.125 369.795 150.125C371.211 150.125 372.416 150.458 373.407 151.125C374.399 151.792 375.132 152.729 375.607 153.937C376.082 155.146 376.249 156.567 376.107 158.2H372.745V156.95C372.745 155.575 372.524 154.587 372.082 153.987C371.649 153.379 370.936 153.075 369.945 153.075C368.786 153.075 367.932 153.429 367.382 154.137C366.841 154.837 366.57 155.875 366.57 157.25C366.57 158.508 366.841 159.483 367.382 160.175C367.932 160.858 368.736 161.2 369.795 161.2C370.461 161.2 371.032 161.054 371.507 160.762C371.982 160.471 372.345 160.05 372.595 159.5L375.995 160.475C375.486 161.708 374.682 162.667 373.582 163.35C372.491 164.033 371.295 164.375 369.995 164.375ZM365.52 158.2V155.675H374.47V158.2H365.52ZM378.991 164V160.6H382.391V164H378.991ZM384.449 170V166.825H385.049C385.824 166.825 386.353 166.65 386.637 166.3C386.928 165.95 387.074 165.45 387.074 164.8V150.5H390.474V166.45C390.474 167.525 390.137 168.383 389.462 169.025C388.795 169.675 387.891 170 386.749 170H384.449ZM387.074 148.625V145.625H390.474V148.625H387.074ZM399.244 164.375C397.544 164.375 396.169 163.992 395.119 163.225C394.077 162.45 393.444 161.358 393.219 159.95L396.694 159.425C396.835 160.058 397.148 160.554 397.631 160.912C398.123 161.271 398.744 161.45 399.494 161.45C400.11 161.45 400.585 161.333 400.919 161.1C401.252 160.858 401.419 160.525 401.419 160.1C401.419 159.833 401.352 159.621 401.219 159.462C401.085 159.296 400.785 159.133 400.319 158.975C399.86 158.817 399.144 158.608 398.169 158.35C397.069 158.067 396.19 157.75 395.531 157.4C394.873 157.05 394.398 156.633 394.106 156.15C393.815 155.658 393.669 155.067 393.669 154.375C393.669 153.508 393.89 152.758 394.331 152.125C394.773 151.483 395.394 150.992 396.194 150.65C397.002 150.3 397.952 150.125 399.044 150.125C400.102 150.125 401.04 150.287 401.856 150.612C402.673 150.937 403.331 151.4 403.831 152C404.34 152.6 404.652 153.308 404.769 154.125L401.294 154.75C401.235 154.25 401.019 153.854 400.644 153.562C400.269 153.271 399.76 153.1 399.119 153.05C398.494 153.008 397.99 153.092 397.606 153.3C397.231 153.508 397.044 153.808 397.044 154.2C397.044 154.433 397.123 154.629 397.281 154.787C397.448 154.946 397.785 155.108 398.294 155.275C398.81 155.442 399.594 155.658 400.644 155.925C401.669 156.192 402.49 156.504 403.106 156.862C403.731 157.212 404.185 157.637 404.469 158.137C404.752 158.629 404.894 159.225 404.894 159.925C404.894 161.308 404.394 162.396 403.394 163.187C402.394 163.979 401.01 164.375 399.244 164.375Z" fill="white"/>
<path d="M437.319 56.0989L428.315 42.6807L428.31 42.6727C426.839 40.4296 426.093 38.2003 426.093 36.0466C426.093 34.46 426.491 33.0236 427.213 32.0003C428.021 30.8569 429.182 30.2777 430.665 30.2777C431.81 30.2777 432.81 30.5946 433.635 31.2185C434.409 31.8036 435.054 32.6679 435.552 33.7875L435.652 34.015C435.703 34.1302 435.802 34.2186 435.924 34.2574C436.047 34.2961 436.181 34.2822 436.292 34.2196L436.51 34.0955H436.512L438.387 33.0245L438.391 33.0226L438.589 32.9093C438.692 32.8497 438.768 32.7523 438.797 32.6391C438.826 32.5258 438.807 32.4056 438.745 32.3053L438.63 32.1225L438.626 32.1166C437.005 29.5158 434.179 28.0842 430.665 28.0842C428.114 28.0842 425.809 28.9207 424.174 30.4396C422.536 31.9626 421.634 34.1104 421.634 36.4896C421.634 39.5047 422.336 41.7409 424.138 44.4669C424.141 44.4718 424.144 44.4768 424.148 44.4818L433.138 57.9408L433.147 57.9556C435.034 60.7373 435.951 63.2149 435.951 65.5315C435.951 67.5045 435.519 69.1536 434.702 70.3C433.812 71.5488 432.476 72.1826 430.73 72.1826C428.984 72.1826 427.556 71.5419 426.58 70.2791C425.681 69.1148 425.186 67.4291 425.186 65.5306V64.0524C425.186 63.811 424.984 63.6152 424.736 63.6152H420.983C420.735 63.6152 420.534 63.811 420.534 64.0524V65.8454C420.534 70.7094 424.917 74.376 430.731 74.376C433.621 74.376 436.086 73.484 437.859 71.7951C439.612 70.1232 440.54 67.8263 440.54 65.1521C440.54 62.2871 439.486 59.3257 437.321 56.0999L437.319 56.0989Z" fill="white"/>
<path fill-rule="evenodd" clip-rule="evenodd" d="M328.116 72.9047L328.36 73.2417C328.457 73.3757 328.469 73.5506 328.391 73.6956C328.314 73.8407 328.16 73.9321 327.992 73.9321H322.752C322.602 73.9321 322.462 73.8595 322.378 73.7384C322.296 73.617 322.279 73.463 322.337 73.3281L322.464 73.0251C322.866 72.0762 322.853 71.4534 322.687 70.6418C322.685 70.6364 322.684 70.6305 322.683 70.6249L322.683 70.623L321.035 61.9006H310.436L309.434 67.3446V67.3475L309.402 67.5254C309.364 67.734 309.177 67.886 308.959 67.886H307.598C307.464 67.886 307.338 67.8294 307.252 67.7301C307.166 67.6307 307.131 67.4995 307.154 67.3724L307.201 67.1161L313.42 32.8467C313.422 32.8438 313.422 32.8408 313.422 32.8378C313.583 31.9308 313.632 31.3655 313.591 30.8887C313.552 30.4357 313.426 30.0224 313.151 29.4611V29.4581L312.999 29.1482C312.933 29.0131 312.943 28.8541 313.026 28.727C313.109 28.5998 313.252 28.5233 313.406 28.5233H316.741C318.147 28.5233 319.401 29.5843 319.668 30.995C319.67 31.0009 319.671 31.0069 319.672 31.0129L327.186 70.3814C327.186 70.383 327.187 70.3845 327.187 70.3862C327.188 70.3899 327.189 70.3939 327.189 70.3974L327.208 70.5057C327.326 71.207 327.461 72.0027 328.112 72.8988L328.116 72.9047ZM315.651 33.7011L310.875 59.707H320.595L315.651 33.7011Z" fill="white"/>
<path d="M244.449 28.5243H263.039C263.287 28.5243 263.488 28.72 263.488 28.9614V30.2817C263.488 30.5231 263.287 30.7188 263.039 30.7188H255.975V70.5702C255.975 71.049 255.99 71.3939 256.066 71.7404C256.144 72.1021 256.295 72.4856 256.552 72.9863L256.714 73.3031C256.784 73.4383 256.776 73.5992 256.694 73.7284C256.612 73.8564 256.467 73.935 256.312 73.935H251.179C251.022 73.935 250.877 73.8564 250.795 73.7274C250.714 73.5982 250.707 73.4373 250.776 73.3012L250.938 72.9842C251.196 72.4846 251.345 72.1012 251.424 71.7404C251.499 71.3927 251.515 71.0481 251.515 70.5692V30.7178H244.449C244.201 30.7178 244 30.5221 244 30.2807V28.9614C244 28.72 244.201 28.5243 244.449 28.5243Z" fill="white"/>
<path d="M374.254 29.474C374.512 29.9767 374.662 30.3602 374.74 30.7188C374.815 31.0655 374.831 31.4112 374.831 31.889V64.4248C374.831 64.6664 375.032 64.862 375.28 64.862H389.593C389.842 64.862 390.043 64.6664 390.043 64.4248V63.1066C390.043 62.8652 389.842 62.6696 389.593 62.6696H379.29V44.3884H389.593C389.842 44.3884 390.043 44.1927 390.043 43.9513V42.633C390.043 42.3916 389.842 42.1959 389.593 42.1959H379.29V30.7188H389.593C389.842 30.7188 390.043 30.5231 390.043 30.2817V28.9624C390.043 28.721 389.842 28.5253 389.593 28.5253H374.494C374.337 28.5253 374.193 28.6038 374.111 28.7329C374.029 28.8621 374.021 29.023 374.091 29.1581L374.254 29.475V29.474Z" fill="white"/>
<path fill-rule="evenodd" clip-rule="evenodd" d="M391.68 70.7084L392.198 71.4653L392.197 71.4662L392.323 71.6511C392.388 71.7485 392.413 71.8677 392.388 71.982C392.364 72.0962 392.294 72.1964 392.193 72.26L392.002 72.3804C392.001 72.3807 392 72.3815 391.999 72.3823L391.997 72.3832C391.996 72.3836 391.996 72.384 391.995 72.3842C389.567 73.914 386.59 74.6899 383.148 74.6899C379.431 74.6899 376.494 74.0542 373.903 72.6893C371.4 71.371 369.144 69.3204 366.799 66.2369V66.2348C365.594 64.6564 364.605 63.2248 363.733 61.9611L363.483 61.6005C362.579 60.2922 361.764 59.1348 360.952 58.2169C360.112 57.2692 359.319 56.6335 358.46 56.2182C357.557 55.781 356.554 55.5644 355.32 55.5416V73.4968C355.32 73.7384 355.119 73.934 354.87 73.934H351.311C351.063 73.934 350.862 73.7384 350.862 73.4968V31.889C350.862 31.4102 350.846 31.0655 350.771 30.7188C350.693 30.3602 350.543 29.9767 350.285 29.474L350.122 29.1571C350.052 29.022 350.06 28.8611 350.142 28.7319C350.224 28.6028 350.368 28.5243 350.525 28.5243H356.525C360.405 28.5243 363.635 29.783 365.866 32.1642C368.079 34.5266 369.249 37.939 369.249 42.032C369.249 48.1565 366.292 52.8315 361.404 54.6645C364.772 56.3284 367.351 59.5461 370.668 63.9997L370.677 64.0116C374.505 69.1715 378.003 72.3694 383.604 72.3694C386.648 72.3694 388.782 71.8189 390.741 70.5285H390.743L390.927 70.4064C391.027 70.3407 391.147 70.3169 391.266 70.3388C391.383 70.3607 391.487 70.4281 391.554 70.5245L391.678 70.7053L391.68 70.7084ZM355.747 30.7188H355.32V53.3451H355.746C358.652 53.3451 360.876 52.3369 362.357 50.348C363.799 48.4147 364.529 45.7911 364.529 42.032C364.529 38.2728 363.896 35.5479 362.591 33.7021C361.174 31.6943 358.935 30.7188 355.747 30.7188Z" fill="white"/>
<path d="M412.667 28.5243H416.228C416.476 28.5243 416.677 28.72 416.677 28.9614V64.8987C416.677 67.6833 415.761 70.0468 414.026 71.7335C412.249 73.4611 409.706 74.3741 406.674 74.3741C403.161 74.3741 400.333 72.9425 398.712 70.3417L398.593 70.152C398.531 70.0516 398.512 69.9314 398.541 69.8181C398.571 69.705 398.646 69.6077 398.75 69.548L398.947 69.4347L398.951 69.4328L401.045 68.2387C401.157 68.1752 401.29 68.1612 401.413 68.1999C401.535 68.2387 401.635 68.327 401.686 68.4422L401.783 68.6619C401.783 68.6634 401.784 68.6646 401.784 68.6659C401.785 68.6671 401.785 68.6682 401.786 68.6698C402.284 69.7914 402.93 70.6556 403.702 71.2399C404.529 71.8637 405.529 72.1807 406.673 72.1807C408.682 72.1807 410.113 71.4236 411.045 69.8678C411.811 68.5893 412.217 66.7615 412.217 64.5838V28.9614C412.217 28.72 412.418 28.5243 412.667 28.5243Z" fill="white"/>
<path d="M314.177 71.9472H314.176L313.659 71.2546L313.534 71.0847C313.392 70.895 313.121 70.8484 312.92 70.9786L312.745 71.0918L312.741 71.0947C312.061 71.5359 311.356 71.7404 310.523 71.7404H296.299V50.0588H307.121C307.37 50.0588 307.571 49.8632 307.571 49.6218V48.3026C307.571 48.0611 307.37 47.8654 307.121 47.8654H296.299V30.7188H307.121C307.37 30.7188 307.571 30.5231 307.571 30.2817V28.9614C307.571 28.72 307.37 28.5243 307.121 28.5243H291.504C291.347 28.5243 291.203 28.6028 291.121 28.7319C291.038 28.8611 291.031 29.022 291.101 29.1571L291.263 29.471V29.474C291.522 29.9767 291.672 30.3602 291.75 30.7178C291.826 31.0655 291.84 31.4112 291.84 31.889V73.4968C291.84 73.7384 292.041 73.934 292.289 73.934H310.783C312.078 73.934 313.056 73.6091 314.051 72.8492L314.22 72.7181C314.41 72.5729 314.448 72.3068 314.305 72.1169L314.177 71.946V71.9472Z" fill="white"/>
<path d="M392.934 71.7028C392.934 70.3338 394.079 69.2202 395.487 69.2202C396.896 69.2202 398.041 70.3329 398.041 71.7028C398.041 73.0727 396.894 74.1863 395.487 74.1863C394.079 74.1863 392.934 73.0717 392.934 71.7028Z" fill="white"/>
<path d="M286.336 72.9842C286.078 72.4846 285.929 72.1 285.849 71.7404C285.774 71.3927 285.76 71.0471 285.76 70.5692V28.9614C285.76 28.72 285.558 28.5243 285.31 28.5243H281.751C281.503 28.5243 281.301 28.72 281.301 28.9614V53.3451H270.473V28.9614C270.473 28.72 270.272 28.5243 270.023 28.5243H266.464C266.216 28.5243 266.015 28.72 266.015 28.9614V73.4968C266.015 73.7384 266.216 73.934 266.464 73.934H270.023C270.272 73.934 270.473 73.7384 270.473 73.4968V55.5396H281.301V73.4968C281.301 73.7384 281.503 73.934 281.751 73.934H286.097C286.253 73.934 286.397 73.8555 286.48 73.7263C286.561 73.5972 286.57 73.4363 286.499 73.3002L286.337 72.9832L286.336 72.9842Z" fill="white"/>
<path d="M328.652 28.5243H347.241C347.49 28.5243 347.691 28.72 347.691 28.9614V30.2817C347.691 30.5231 347.49 30.7188 347.241 30.7188H340.176V70.5692C340.176 71.0471 340.191 71.3927 340.267 71.7395C340.346 72.1 340.496 72.4836 340.753 72.9832L340.755 72.9873L340.916 73.3012C340.985 73.4364 340.977 73.5972 340.895 73.7263C340.814 73.8545 340.669 73.9331 340.513 73.9331H335.38C335.224 73.9331 335.079 73.8545 334.997 73.7253C334.915 73.5972 334.908 73.4364 334.977 73.3002L335.14 72.9832C335.397 72.4836 335.547 72.1012 335.625 71.7404C335.701 71.3927 335.716 71.0481 335.716 70.5692V30.7178H328.652C328.404 30.7178 328.202 30.5221 328.202 30.2807V28.9614C328.202 28.72 328.404 28.5243 328.652 28.5243Z" fill="white"/>
</svg>
