<svg width="32" height="32" viewBox="0 0 32 32" fill="none" xmlns="http://www.w3.org/2000/svg">
  <g clip-path="url(#clip0_1282_397)">
    <path d="M16 0.0527578C7.19 0.0527578 0.0469971 7.19376 0.0469971 16.0028C0.0469971 24.8128 7.189 31.9538 15.998 31.9538C24.808 31.9538 31.95 24.8138 31.95 16.0038C31.95 7.19376 24.809 0.0537578 15.998 0.0537578V0.0517578L16 0.0527578ZM23.314 23.0578C23.2459 23.1692 23.1566 23.2662 23.051 23.3431C22.9455 23.42 22.8258 23.4754 22.6989 23.506C22.5719 23.5367 22.4402 23.542 22.3112 23.5217C22.1822 23.5014 22.0584 23.4559 21.947 23.3878C18.202 21.0998 13.487 20.5818 7.935 21.8508C7.67861 21.9072 7.41032 21.86 7.18858 21.7194C6.96685 21.5789 6.80963 21.3564 6.75119 21.1005C6.69275 20.8446 6.73782 20.5759 6.87657 20.3531C7.01533 20.1302 7.23654 19.9712 7.492 19.9108C13.568 18.5228 18.78 19.1208 22.985 21.6908C23.453 21.9778 23.602 22.5898 23.315 23.0578H23.314ZM25.267 18.7148C24.907 19.2998 24.141 19.4848 23.557 19.1248C19.269 16.4888 12.733 15.7248 7.661 17.2648C7.34539 17.3604 7.00471 17.327 6.71374 17.1718C6.42276 17.0165 6.20527 16.7522 6.109 16.4368C6.0137 16.121 6.04757 15.7804 6.20318 15.4896C6.35879 15.1988 6.62343 14.9816 6.939 14.8858C12.732 13.1278 19.933 13.9788 24.857 17.0058C25.442 17.3658 25.627 18.1308 25.267 18.7148ZM25.434 14.1918C20.294 11.1378 11.812 10.8578 6.904 12.3468C6.71571 12.4067 6.5174 12.4286 6.32058 12.4112C6.12376 12.3938 5.93235 12.3375 5.75746 12.2456C5.58257 12.1537 5.42768 12.0279 5.30179 11.8756C5.17589 11.7233 5.0815 11.5476 5.02409 11.3585C4.96667 11.1694 4.94738 10.9709 4.96734 10.7743C4.98729 10.5777 5.04609 10.3871 5.14032 10.2134C5.23456 10.0397 5.36235 9.88651 5.51627 9.76263C5.6702 9.63875 5.8472 9.54668 6.037 9.49176C11.672 7.78176 21.038 8.11176 26.957 11.6258C27.1255 11.7257 27.2726 11.8578 27.3901 12.0146C27.5075 12.1714 27.5929 12.3498 27.6413 12.5396C27.6898 12.7295 27.7004 12.9269 27.6726 13.1208C27.6447 13.3148 27.5789 13.5013 27.479 13.6698C27.3791 13.8382 27.2469 13.9854 27.0901 14.1028C26.9333 14.2202 26.7549 14.3056 26.5651 14.3541C26.3753 14.4026 26.1778 14.4132 25.9839 14.3853C25.79 14.3575 25.6035 14.2917 25.435 14.1918H25.434Z" fill="black" />
  </g>
  <defs>
    <clipPath id="clip0_1282_397">
      <rect width="32" height="32" fill="white" />
    </clipPath>
  </defs>
</svg>