<svg width="741" height="222" viewBox="0 0 741 222" fill="none" xmlns="http://www.w3.org/2000/svg">
<path d="M1.29874 175.371C20.5047 160.323 36.2457 147.354 48.5217 136.464C60.7977 125.574 71.0937 114.387 79.4097 102.903C87.7257 91.221 91.8838 80.133 91.8838 69.639C91.8838 63.303 90.3987 58.353 87.4287 54.789C84.6567 51.225 80.4987 49.443 74.9547 49.443C69.2127 49.443 64.7577 51.918 61.5897 56.868C58.4217 61.62 56.9367 68.649 57.1347 77.955H0.704742C1.29874 60.333 5.15974 45.78 12.2877 34.296C19.4157 22.614 28.7217 14.1 40.2057 8.75398C51.6897 3.20998 64.4607 0.437985 78.5187 0.437985C102.873 0.437985 120.99 6.47698 132.87 18.555C144.75 30.633 150.69 46.275 150.69 65.481C150.69 86.073 143.76 105.378 129.9 123.396C116.238 141.414 99.1107 157.551 78.5187 171.807H152.769V219.03H1.29874V175.371ZM179.599 110.328C179.599 76.272 186.529 49.443 200.389 29.841C214.249 10.239 236.029 0.437985 265.729 0.437985C295.429 0.437985 317.209 10.239 331.069 29.841C345.127 49.443 352.156 76.272 352.156 110.328C352.156 144.78 345.226 171.807 331.366 191.409C317.506 211.011 295.627 220.812 265.729 220.812C235.831 220.812 213.952 211.011 200.092 191.409C186.43 171.807 179.599 144.78 179.599 110.328ZM294.538 110.328C294.538 92.508 292.657 78.945 288.895 69.639C285.133 60.135 277.411 55.383 265.729 55.383C254.047 55.383 246.325 60.135 242.563 69.639C238.801 78.945 236.92 92.508 236.92 110.328C236.92 128.544 238.702 142.404 242.266 151.908C246.028 161.214 253.849 165.867 265.729 165.867C277.609 165.867 285.331 161.214 288.895 151.908C292.657 142.404 294.538 128.544 294.538 110.328ZM380.438 175.371C399.644 160.323 415.385 147.354 427.661 136.464C439.937 125.574 450.233 114.387 458.549 102.903C466.865 91.221 471.023 80.133 471.023 69.639C471.023 63.303 469.538 58.353 466.568 54.789C463.796 51.225 459.638 49.443 454.094 49.443C448.352 49.443 443.897 51.918 440.729 56.868C437.561 61.62 436.076 68.649 436.274 77.955H379.844C380.438 60.333 384.299 45.78 391.427 34.296C398.555 22.614 407.861 14.1 419.345 8.75398C430.829 3.20998 443.6 0.437985 457.658 0.437985C482.012 0.437985 500.129 6.47698 512.009 18.555C523.889 30.633 529.829 46.275 529.829 65.481C529.829 86.073 522.899 105.378 509.039 123.396C495.377 141.414 478.25 157.551 457.658 171.807H531.908V219.03H380.438V175.371ZM562.302 186.36V138.246L653.481 8.15999H717.336V135.87H740.205V186.36H717.336V222H658.53V186.36H562.302ZM662.985 73.797L621.999 135.87H662.985V73.797Z" fill="white"/>
</svg>
