<svg width="189" height="66" viewBox="0 0 189 66" fill="none" xmlns="http://www.w3.org/2000/svg">
<path d="M40.622 35.7682L38.029 28.5653C38.029 28.5653 33.8157 33.3676 27.4974 33.3676C21.9066 33.3676 17.9372 28.3997 17.9372 20.451C17.9372 10.2671 22.9597 6.62405 27.9024 6.62405C35.0314 6.62405 37.2997 11.3433 39.2445 17.3879L41.8374 25.6677C44.4291 33.6985 49.2905 40.1566 63.306 40.1566C73.3528 40.1566 80.158 37.0107 80.158 28.7311C80.158 22.0246 76.4307 18.5469 69.4632 16.8908L64.2781 15.7317C60.7138 14.9039 59.6607 13.4133 59.6607 10.9294C59.6607 8.11422 61.8478 6.45814 65.4129 6.45814C69.3017 6.45814 71.4078 7.94867 71.7324 11.5089L79.8338 10.5151C79.1855 3.0635 74.1627 0 65.8989 0C58.6081 0 51.4783 2.81513 51.4783 11.84C51.4783 17.4703 54.1518 21.0309 60.8757 22.6866L66.3854 24.0109C70.517 25.0047 71.8939 26.7433 71.8939 29.1448C71.8939 32.2076 68.9775 33.4498 63.4682 33.4498C55.2858 33.4498 51.8835 29.0617 49.9388 23.0171L47.2653 14.738C43.8633 3.97417 38.4344 0 27.6591 0C15.7499 0 9.43036 7.69997 9.43036 20.7818C9.43036 33.3673 15.75 40.1562 27.0926 40.1562C36.2463 40.1562 40.622 35.7682 40.622 35.7682Z" fill="white"/>
<path d="M27.2237 56.0602V48.9036H28.5597V54.7979H31.6049V56.0602H27.2237ZM33.9135 56.2093C33.5337 56.2093 33.2112 56.1366 32.9459 55.9907C32.684 55.8416 32.4843 55.6444 32.3467 55.399C32.2125 55.1506 32.1453 54.8774 32.1453 54.5792C32.1453 54.3307 32.183 54.1037 32.2583 53.8981C32.3336 53.693 32.4548 53.5125 32.6218 53.3566C32.792 53.1976 33.0196 53.0652 33.3045 52.959C33.501 52.8863 33.7351 52.8215 34.0069 52.765C34.2786 52.709 34.5864 52.6557 34.9303 52.606C35.2741 52.5531 35.6523 52.495 36.0648 52.4322L35.5835 52.7006C35.5835 52.3825 35.5082 52.1487 35.3576 51.9997C35.2069 51.8506 34.9548 51.7762 34.6012 51.7762C34.4047 51.7762 34.2 51.8243 33.9872 51.9201C33.7744 52.0164 33.6254 52.1869 33.5403 52.4322L32.332 52.0446C32.4662 51.6005 32.7184 51.2395 33.0884 50.9611C33.4584 50.6828 33.9627 50.5437 34.6012 50.5437C35.0694 50.5437 35.4853 50.6164 35.8487 50.7623C36.2122 50.9083 36.4872 51.1599 36.6739 51.5178C36.7786 51.7166 36.8409 51.9154 36.8605 52.1142C36.8802 52.3129 36.89 52.5348 36.89 52.7801V56.0602H35.721V54.9569L35.888 55.1855C35.6293 55.5466 35.3494 55.8086 35.0481 55.9708C34.7501 56.1298 34.3719 56.2093 33.9135 56.2093ZM34.1984 55.1458C34.444 55.1458 34.6503 55.1028 34.8173 55.0166C34.9875 54.9271 35.1218 54.8261 35.22 54.7132C35.3215 54.6007 35.3903 54.5065 35.4263 54.4301C35.4951 54.2842 35.5344 54.1152 35.5442 53.9232C35.5573 53.7276 35.5639 53.5654 35.5639 53.4361L35.9568 53.5355C35.5606 53.6019 35.2397 53.658 34.9941 53.7045C34.7485 53.7475 34.5504 53.7872 34.3998 53.8238C34.2491 53.8604 34.1165 53.9001 34.002 53.9431C33.8709 53.996 33.7645 54.054 33.6827 54.1168C33.6041 54.1765 33.5452 54.2429 33.5059 54.3156C33.4698 54.3888 33.4518 54.4699 33.4518 54.5593C33.4518 54.6818 33.4813 54.7879 33.5403 54.8774C33.6025 54.9637 33.6892 55.0297 33.8006 55.0762C33.9119 55.1227 34.0445 55.1458 34.1984 55.1458ZM40.2397 56.2093C39.5717 56.2093 39.0316 56.0571 38.619 55.7521C38.2097 55.444 37.9608 55.0098 37.8724 54.45L39.2378 54.2413C39.2935 54.4929 39.4161 54.6901 39.6063 54.8325C39.7992 54.9752 40.0432 55.0464 40.3379 55.0464C40.5804 55.0464 40.767 54.9999 40.8979 54.9072C41.0291 54.811 41.0943 54.6786 41.0943 54.5096C41.0943 54.4035 41.0684 54.3192 41.0157 54.256C40.9635 54.19 40.8456 54.1252 40.6621 54.0624C40.4821 53.9995 40.2004 53.9164 39.8173 53.8139C39.3851 53.7013 39.0397 53.5753 38.7811 53.4361C38.5224 53.297 38.3357 53.1312 38.2211 52.9392C38.1065 52.7435 38.0492 52.5086 38.0492 52.2334C38.0492 51.8887 38.136 51.5905 38.3095 51.3389C38.4831 51.0836 38.727 50.8884 39.0414 50.7524C39.3591 50.6133 39.7324 50.5437 40.1611 50.5437C40.5772 50.5437 40.9454 50.6081 41.2664 50.7373C41.5871 50.8665 41.846 51.0506 42.0425 51.2892C42.2421 51.5277 42.3651 51.8092 42.4106 52.134L41.0452 52.3825C41.0224 52.1837 40.9372 52.0263 40.7898 51.9102C40.6425 51.7945 40.4428 51.7265 40.1906 51.7066C39.945 51.6899 39.747 51.7233 39.5965 51.806C39.4491 51.8887 39.3752 52.008 39.3752 52.1639C39.3752 52.2565 39.4063 52.3344 39.4688 52.3972C39.534 52.4605 39.6668 52.5249 39.8664 52.5913C40.0696 52.6577 40.3772 52.7435 40.7898 52.8497C41.1926 52.9559 41.5152 53.0799 41.7576 53.2222C42.0032 53.3614 42.1816 53.5304 42.2928 53.7292C42.4044 53.9248 42.4598 54.1617 42.4598 54.4401C42.4598 54.9899 42.2633 55.4225 41.8704 55.737C41.4774 56.0519 40.934 56.2093 40.2397 56.2093ZM46.7219 56.0602C46.3553 56.1298 45.995 56.1596 45.6413 56.1497C45.2908 56.1429 44.9765 56.0817 44.6983 55.9656C44.4232 55.8463 44.2138 55.6559 44.0696 55.3943C43.9388 55.149 43.87 54.9005 43.8633 54.6488C43.8566 54.3935 43.8535 54.1053 43.8535 53.784V49.2018H45.1895V53.7045C45.1895 53.9133 45.191 54.1021 45.1946 54.2711C45.2008 54.4369 45.2354 54.5693 45.2975 54.6687C45.4154 54.8575 45.6036 54.9601 45.8625 54.9768C46.1211 54.9935 46.4075 54.98 46.7219 54.937V56.0602ZM42.9497 51.7364V50.6928H46.7219V51.7364H42.9497ZM48.1203 56.0602V54.7084H49.4563V56.0602H48.1203ZM51.4925 56.0602V50.7127C51.4925 50.5767 51.496 50.4228 51.5023 50.2503C51.509 50.0781 51.5353 49.9043 51.5809 49.7286C51.63 49.5529 51.7184 49.3938 51.8461 49.2515C52.01 49.0658 52.1868 48.9402 52.3766 48.8738C52.5699 48.8042 52.7565 48.7676 52.9365 48.7645C53.1168 48.7577 53.2705 48.7545 53.3982 48.7545H54.0563V49.8479H53.4473C53.2379 49.8479 53.0823 49.9024 52.9809 50.0117C52.8795 50.1179 52.8284 50.2455 52.8284 50.3946V56.0602H51.4925ZM50.6575 51.7364V50.6928H54.0563V51.7364H50.6575ZM61.225 56.0602V52.8895C61.225 52.5348 61.1413 52.2601 60.9743 52.0645C60.8108 51.8657 60.5833 51.7663 60.2918 51.7663C60.1051 51.7663 59.9428 51.8108 59.8053 51.9003C59.6678 51.9865 59.5597 52.109 59.4812 52.268C59.4061 52.4239 59.3684 52.6044 59.3684 52.8099L58.8085 52.4322C58.8085 52.0645 58.8937 51.7396 59.0639 51.4581C59.2375 51.1766 59.4682 50.958 59.7562 50.8021C60.0478 50.6431 60.3704 50.5636 60.724 50.5636C61.3299 50.5636 61.7865 50.7457 62.0941 51.1102C62.4053 51.4713 62.561 51.9452 62.561 52.5316V56.0602H61.225ZM54.83 56.0602V50.6928H56.0088V52.472H56.1758V56.0602H54.83ZM58.0324 56.0602V52.8895C58.0324 52.5348 57.9487 52.2601 57.7817 52.0645C57.6183 51.8657 57.3908 51.7663 57.0992 51.7663C56.821 51.7663 56.5966 51.8641 56.4261 52.0593C56.2591 52.2517 56.1758 52.5018 56.1758 52.8099L55.6159 52.4123C55.6159 52.0613 55.7027 51.7464 55.876 51.4681C56.0497 51.1898 56.2823 50.9695 56.5735 50.8069C56.8682 50.6447 57.1974 50.5636 57.5609 50.5636C57.9766 50.5636 58.3173 50.653 58.5825 50.8319C58.8509 51.0108 59.0489 51.2494 59.1766 51.5476C59.3043 51.8458 59.3684 52.1738 59.3684 52.5316V56.0602H58.0324ZM7.784 65.2048L9.94512 58.0482H11.9392L14.1004 65.2048H12.7251L10.7997 58.8931H11.0552L9.15926 65.2048H7.784ZM9.08067 63.7139V62.4515H12.8135V63.7139H9.08067ZM16.9552 65.3639C16.5393 65.3639 16.2004 65.2927 15.9385 65.15C15.6765 65.0076 15.4719 64.8271 15.3245 64.6084C15.1804 64.3898 15.0773 64.1627 15.0151 63.9278C14.9529 63.6888 14.9152 63.4721 14.9021 63.2765C14.889 63.0809 14.8825 62.9386 14.8825 62.8491V59.8373H16.2381V62.372C16.2381 62.4944 16.2446 62.6519 16.2577 62.8439C16.2708 63.0328 16.3117 63.2236 16.3805 63.4157C16.4493 63.6077 16.5606 63.7683 16.7145 63.8975C16.8717 64.0268 17.0927 64.0916 17.3776 64.0916C17.4922 64.0916 17.615 64.0733 17.7459 64.0367C17.8769 64.0005 17.9997 63.9309 18.1143 63.828C18.2289 63.7222 18.3223 63.5679 18.3943 63.366C18.4696 63.1604 18.5073 62.892 18.5073 62.5608L19.2735 62.9286C19.2735 63.3528 19.1883 63.7504 19.0181 64.1214C18.8478 64.4923 18.5907 64.7921 18.2469 65.0207C17.9064 65.2497 17.4758 65.3639 16.9552 65.3639ZM18.6742 65.2048V63.4256H18.5073V59.8373H19.853V65.2048H18.6742ZM23.377 65.3539C22.8892 65.3539 22.4619 65.2299 22.0951 64.981C21.7284 64.7325 21.4419 64.3945 21.2356 63.9671C21.0326 63.5397 20.931 63.0578 20.931 62.5211C20.931 61.9744 21.0342 61.4889 21.2405 61.0647C21.4501 60.6373 21.7431 60.3013 22.1197 60.056C22.4963 59.8107 22.9383 59.6883 23.4458 59.6883C23.9501 59.6883 24.3741 59.8123 24.7179 60.0608C25.0617 60.3093 25.3221 60.6472 25.4989 61.0746C25.6757 61.5021 25.7641 61.9843 25.7641 62.5211C25.7641 63.0578 25.6741 63.5397 25.494 63.9671C25.3171 64.3945 25.0519 64.7325 24.6983 64.981C24.3446 65.2299 23.9042 65.3539 23.377 65.3539ZM23.5932 64.1512C23.8912 64.1512 24.1285 64.0832 24.3053 63.9472C24.4855 63.8117 24.6148 63.6212 24.6934 63.3759C24.772 63.1306 24.8112 62.8459 24.8112 62.5211C24.8112 62.1963 24.772 61.9116 24.6934 61.6663C24.6148 61.421 24.4887 61.2305 24.3152 61.0945C24.1449 60.959 23.9206 60.891 23.6423 60.891C23.3443 60.891 23.0987 60.9653 22.9055 61.1144C22.7156 61.2603 22.5748 61.4575 22.4831 61.706C22.3915 61.9513 22.3456 62.2229 22.3456 62.5211C22.3456 62.8225 22.3898 63.0976 22.4782 63.3461C22.5666 63.5914 22.7025 63.7866 22.8859 63.9325C23.0693 64.0784 23.305 64.1512 23.5932 64.1512ZM24.8112 65.2048V61.5271H24.6443V58.0482H25.99V65.2048H24.8112ZM27.4635 59.0919V57.8991H28.7995V59.0919H27.4635ZM27.4635 65.2048V59.8373H28.7995V65.2048H27.4635ZM32.6591 65.3539C32.1254 65.3539 31.6571 65.233 31.2543 64.9909C30.8516 64.7492 30.5372 64.4164 30.3113 63.9922C30.0886 63.5648 29.9773 63.0745 29.9773 62.5211C29.9773 61.9613 30.0919 61.4691 30.3211 61.0448C30.5503 60.6174 30.8663 60.2846 31.2691 60.0461C31.6718 59.8075 32.1352 59.6883 32.6591 59.6883C33.1928 59.6883 33.661 59.8091 34.0638 60.0509C34.4698 60.293 34.7858 60.6274 35.0117 61.0548C35.2377 61.479 35.3507 61.9676 35.3507 62.5211C35.3507 63.0777 35.236 63.5695 35.0068 63.9969C34.7809 64.4212 34.4649 64.7544 34.0589 64.9961C33.6561 65.2346 33.1895 65.3539 32.6591 65.3539ZM32.6591 64.0916C33.088 64.0916 33.4073 63.9457 33.6168 63.6542C33.8297 63.3592 33.9361 62.9815 33.9361 62.5211C33.9361 62.044 33.828 61.6631 33.6119 61.378C33.3991 61.0929 33.0815 60.9506 32.6591 60.9506C32.3676 60.9506 32.1286 61.017 31.942 61.1494C31.7553 61.2818 31.6161 61.4659 31.5245 61.7009C31.4361 61.9362 31.3919 62.2098 31.3919 62.5211C31.3919 63.0014 31.4983 63.3842 31.7111 63.6689C31.9272 63.9508 32.2432 64.0916 32.6591 64.0916ZM38.3596 65.3539C37.6916 65.3539 37.1513 65.2016 36.7387 64.8967C36.3294 64.5886 36.0806 64.1544 35.9921 63.5946L37.3576 63.3858C37.4133 63.6375 37.5361 63.8347 37.726 63.9771C37.9192 64.1198 38.1631 64.191 38.4578 64.191C38.7001 64.191 38.8868 64.1444 39.0177 64.0518C39.1487 63.9556 39.2142 63.8232 39.2142 63.6542C39.2142 63.5481 39.188 63.4638 39.1356 63.4006C39.0832 63.3346 38.9653 63.2697 38.782 63.2069C38.6019 63.1441 38.3203 63.061 37.9372 62.9584C37.5049 62.8459 37.1595 62.7199 36.9008 62.5807C36.6421 62.4416 36.4555 62.2758 36.3409 62.0837C36.2263 61.8881 36.169 61.6531 36.169 61.378C36.169 61.0333 36.2558 60.7351 36.4293 60.4834C36.6028 60.2282 36.8468 60.033 37.1611 59.897C37.4788 59.7578 37.852 59.6883 38.281 59.6883C38.6969 59.6883 39.0652 59.7527 39.3862 59.8819C39.7069 60.0111 39.9658 60.1952 40.1623 60.4337C40.3619 60.6723 40.4845 60.9538 40.5305 61.2786L39.1651 61.5271C39.1422 61.3283 39.057 61.1709 38.9097 61.0548C38.7623 60.9391 38.5626 60.8711 38.3104 60.8512C38.0649 60.8345 37.8668 60.8679 37.7161 60.9506C37.5688 61.0333 37.4951 61.1526 37.4951 61.3084C37.4951 61.4011 37.5262 61.479 37.5884 61.5418C37.6539 61.605 37.7865 61.6694 37.9863 61.7358C38.1893 61.8022 38.4971 61.8881 38.9097 61.9943C39.3124 62.1004 39.635 62.2245 39.8774 62.3668C40.123 62.506 40.3014 62.6749 40.4126 62.8737C40.5238 63.0694 40.5796 63.3063 40.5796 63.5846C40.5796 64.1345 40.3831 64.5671 39.9902 64.8816C39.5973 65.1965 39.0538 65.3539 38.3596 65.3539ZM43.9969 65.3539C43.4468 65.3539 42.9753 65.2299 42.5824 64.981C42.1894 64.7325 41.888 64.3945 41.6786 63.9671C41.4692 63.5397 41.3643 63.0578 41.3643 62.5211C41.3643 61.9776 41.4723 61.4921 41.6884 61.0647C41.9077 60.6373 42.2157 60.3013 42.6118 60.056C43.0079 59.8107 43.4763 59.6883 44.0166 59.6883C44.6421 59.6883 45.1659 59.8489 45.5883 60.1701C46.0138 60.4882 46.2857 60.924 46.4036 61.4774L45.0676 61.8352C44.9891 61.5569 44.8515 61.3398 44.6551 61.184C44.4617 61.0285 44.2425 60.9506 43.9969 60.9506C43.7152 60.9506 43.4845 61.0202 43.3042 61.1593C43.1242 61.2953 42.9918 61.4822 42.9065 61.7207C42.8213 61.9561 42.7788 62.2229 42.7788 62.5211C42.7788 62.9883 42.8802 63.3676 43.0833 63.659C43.2896 63.9472 43.5942 64.0916 43.9969 64.0916C44.2983 64.0916 44.5274 64.022 44.6845 63.8828C44.8417 63.7437 44.9596 63.5449 45.0382 63.2864L46.4036 63.5747C46.2531 64.1444 45.9682 64.5834 45.549 64.8915C45.1297 65.2 44.6126 65.3539 43.9969 65.3539ZM47.3859 65.2048V59.8373H48.5647V61.1494L48.437 60.9804C48.5058 60.7947 48.5977 60.6258 48.7121 60.4735C48.8268 60.3212 48.9675 60.1952 49.1345 60.0958C49.2622 60.0163 49.4013 59.955 49.5522 59.9117C49.7027 59.8656 49.8583 59.8374 50.0186 59.8274C50.1793 59.8143 50.3396 59.8175 50.4999 59.8373V61.0997C50.3526 61.0532 50.1809 61.0385 49.9844 61.0548C49.7911 61.0683 49.6158 61.1128 49.4587 61.1892C49.3015 61.2619 49.1691 61.3597 49.061 61.4822C48.953 61.6015 48.8708 61.7442 48.8154 61.9096C48.7596 62.0722 48.7317 62.2559 48.7317 62.4614V65.2048H47.3859ZM53.7255 65.3539C53.1915 65.3539 52.7235 65.233 52.3208 64.9909C51.918 64.7492 51.6037 64.4164 51.3777 63.9922C51.1549 63.5648 51.0437 63.0745 51.0437 62.5211C51.0437 61.9613 51.1581 61.4691 51.3876 61.0448C51.6166 60.6174 51.9325 60.2846 52.3353 60.0461C52.7381 59.8075 53.2013 59.6883 53.7255 59.6883C54.2591 59.6883 54.7275 59.8091 55.1302 60.0509C55.5361 60.293 55.852 60.6274 56.078 61.0548C56.3039 61.479 56.4171 61.9676 56.4171 62.5211C56.4171 63.0777 56.3023 63.5695 56.0733 63.9969C55.8473 64.4212 55.5314 64.7544 55.1251 64.9961C54.7224 65.2346 54.256 65.3539 53.7255 65.3539ZM53.7255 64.0916C54.1542 64.0916 54.4736 63.9457 54.6831 63.6542C54.896 63.3592 55.0025 62.9815 55.0025 62.5211C55.0025 62.044 54.8945 61.6631 54.6784 61.378C54.4654 61.0929 54.1479 60.9506 53.7255 60.9506C53.4339 60.9506 53.195 61.017 53.0084 61.1494C52.8218 61.2818 52.6827 61.4659 52.5907 61.7009C52.5023 61.9362 52.4583 62.2098 52.4583 62.5211C52.4583 63.0014 52.5648 63.3842 52.7774 63.6689C52.9935 63.9508 53.3094 64.0916 53.7255 64.0916ZM60.1004 65.3539C59.5731 65.3539 59.1326 65.2299 58.779 64.981C58.4253 64.7325 58.1585 64.3945 57.9786 63.9671C57.8018 63.5397 57.7134 63.0578 57.7134 62.5211C57.7134 61.9843 57.8018 61.5021 57.9786 61.0746C58.1554 60.6472 58.4155 60.3093 58.7593 60.0608C59.1032 59.8123 59.5271 59.6883 60.0317 59.6883C60.5389 59.6883 60.981 59.8107 61.3578 60.056C61.7342 60.3013 62.0258 60.6373 62.2321 61.0647C62.4415 61.4889 62.5464 61.9744 62.5464 62.5211C62.5464 63.0578 62.4431 63.5397 62.2368 63.9671C62.0336 64.3945 61.7488 64.7325 61.3822 64.981C61.0156 65.2299 60.588 65.3539 60.1004 65.3539ZM57.4874 65.2048V58.0482H58.8332V61.5271H58.6662V65.2048H57.4874ZM59.8843 64.1512C60.1723 64.1512 60.4081 64.0784 60.5916 63.9325C60.7747 63.7866 60.9106 63.5914 60.999 63.3461C61.0875 63.0976 61.1319 62.8225 61.1319 62.5211C61.1319 62.2229 61.0859 61.9513 60.9943 61.706C60.9024 61.4575 60.7601 61.2603 60.5668 61.1144C60.377 60.9653 60.133 60.891 59.8352 60.891C59.5566 60.891 59.3307 60.959 59.1574 61.0945C58.9868 61.2305 58.8627 61.421 58.7841 61.6663C58.7055 61.9116 58.6662 62.1963 58.6662 62.5211C58.6662 62.8459 58.7055 63.1306 58.7841 63.3759C58.8627 63.6212 58.9904 63.8117 59.1672 63.9472C59.3472 64.0832 59.5861 64.1512 59.8843 64.1512ZM66.2301 65.3539C65.7032 65.3539 65.2627 65.2299 64.9091 64.981C64.5555 64.7325 64.2887 64.3945 64.1083 63.9671C63.9315 63.5397 63.8431 63.0578 63.8431 62.5211C63.8431 61.9843 63.9315 61.5021 64.1083 61.0746C64.2851 60.6472 64.5456 60.3093 64.8895 60.0608C65.2333 59.8123 65.6572 59.6883 66.1614 59.6883C66.669 59.6883 67.1111 59.8107 67.4875 60.056C67.8643 60.3013 68.1555 60.6373 68.3618 61.0647C68.5716 61.4889 68.6761 61.9744 68.6761 62.5211C68.6761 63.0578 68.5732 63.5397 68.3669 63.9671C68.1638 64.3945 67.8789 64.7325 67.5123 64.981C67.1453 65.2299 66.7182 65.3539 66.2301 65.3539ZM63.6172 65.2048V58.0482H64.9629V61.5271H64.7959V65.2048H63.6172ZM66.014 64.1512C66.3024 64.1512 66.5382 64.0784 66.7213 63.9325C66.9048 63.7866 67.0408 63.5914 67.1292 63.3461C67.2176 63.0976 67.2616 62.8225 67.2616 62.5211C67.2616 62.2229 67.216 61.9513 67.1241 61.706C67.0325 61.4575 66.8899 61.2603 66.6969 61.1144C66.5068 60.9653 66.2631 60.891 65.9649 60.891C65.6867 60.891 65.4608 60.959 65.2871 61.0945C65.117 61.2305 64.9924 61.421 64.9138 61.6663C64.8352 61.9116 64.7959 62.1963 64.7959 62.5211C64.7959 62.8459 64.8352 63.1306 64.9138 63.3759C64.9924 63.6212 65.1201 63.8117 65.2969 63.9472C65.4773 64.0832 65.7162 64.1512 66.014 64.1512ZM69.8553 65.2048V57.8991H71.1913V65.2048H69.8553ZM75.1293 65.3539C74.5858 65.3539 74.1061 65.2362 73.6903 65.0009C73.2778 64.7623 72.9536 64.4363 72.7178 64.022C72.4852 63.6045 72.3689 63.1274 72.3689 62.5907C72.3689 62.0042 72.4836 61.4941 72.7127 61.0599C72.9422 60.6258 73.2581 60.2894 73.6609 60.0509C74.0636 59.8091 74.5269 59.6883 75.0507 59.6883C75.6075 59.6883 76.0805 59.8206 76.4703 60.0858C76.8597 60.351 77.1481 60.7236 77.3348 61.2039C77.5214 61.6846 77.5866 62.2495 77.5312 62.8988H76.2098V62.4018C76.2098 61.8551 76.123 61.4623 75.9497 61.2237C75.7792 60.982 75.4994 60.8611 75.1096 60.8611C74.6546 60.8611 74.319 61.0019 74.1029 61.2834C73.8899 61.5617 73.7835 61.9744 73.7835 62.5211C73.7835 63.0213 73.8899 63.4089 74.1029 63.684C74.319 63.9556 74.6349 64.0916 75.0507 64.0916C75.3128 64.0916 75.5371 64.0335 75.7238 63.9174C75.9104 63.8017 76.0526 63.6343 76.1509 63.4157L77.4868 63.8033C77.2872 64.2935 76.9713 64.6748 76.5391 64.9464C76.11 65.2179 75.6401 65.3539 75.1293 65.3539ZM73.3709 62.8988V61.8949H76.8876V62.8988H73.3709ZM78.6401 65.2048V59.8373H79.8189V61.1494L79.6912 60.9804C79.7599 60.7947 79.8519 60.6258 79.9662 60.4735C80.081 60.3212 80.2216 60.1952 80.3886 60.0958C80.5163 60.0163 80.6554 59.955 80.8063 59.9117C80.9568 59.8656 81.1124 59.8374 81.2727 59.8274C81.4334 59.8143 81.5938 59.8175 81.7541 59.8373V61.0997C81.6067 61.0532 81.435 61.0385 81.2386 61.0548C81.0452 61.0683 80.87 61.1128 80.7128 61.1892C80.5556 61.2619 80.4232 61.3597 80.3152 61.4822C80.2071 61.6015 80.125 61.7442 80.0696 61.9096C80.0138 62.0722 79.9859 62.2559 79.9859 62.4614V65.2048H78.6401Z" fill="white"/>
<path d="M131.091 65.3539C130.646 65.3539 130.222 65.2744 129.819 65.1154C129.416 64.9532 129.059 64.7146 128.748 64.3997C128.44 64.0848 128.196 63.6956 128.016 63.2316C127.839 62.768 127.751 62.2328 127.751 61.6265C127.751 60.8345 127.9 60.1622 128.198 59.6087C128.499 59.0521 128.902 58.6279 129.406 58.3365C129.914 58.045 130.475 57.8991 131.091 57.8991C132.001 57.8991 132.717 58.1126 133.238 58.54C133.758 58.9674 134.107 59.5722 134.284 60.3542L132.918 60.553C132.79 60.1356 132.581 59.8024 132.289 59.5539C132.001 59.3022 131.631 59.1746 131.179 59.1714C130.731 59.1646 130.357 59.2624 130.06 59.4644C129.762 59.6668 129.537 59.9535 129.387 60.3244C129.239 60.6954 129.166 61.1295 129.166 61.6265C129.166 62.1235 129.239 62.5541 129.387 62.9187C129.537 63.2833 129.762 63.5664 130.06 63.7683C130.357 63.9707 130.731 64.0749 131.179 64.0816C131.484 64.0884 131.759 64.0351 132.005 63.9226C132.253 63.8101 132.463 63.6328 132.633 63.3906C132.803 63.1489 132.925 62.8392 132.997 62.4615H131.877V61.4178H134.421C134.428 61.4607 134.432 61.5371 134.436 61.6464C134.439 61.7557 134.441 61.8185 134.441 61.8352C134.441 62.5211 134.303 63.129 134.028 63.659C133.753 64.1894 133.365 64.6053 132.864 64.9066C132.363 65.2048 131.772 65.3539 131.091 65.3539ZM138.097 65.3539C137.573 65.3539 137.1 65.2613 136.678 65.0756C136.258 64.8868 135.913 64.6184 135.641 64.2705C135.373 63.9194 135.203 63.5019 135.13 63.0181L136.525 62.8093C136.623 63.2201 136.827 63.5365 137.134 63.7584C137.442 63.9806 137.792 64.0916 138.185 64.0916C138.405 64.0916 138.618 64.0566 138.824 63.987C139.03 63.9174 139.199 63.8149 139.33 63.6789C139.464 63.5433 139.531 63.3759 139.531 63.1771C139.531 63.1044 139.52 63.0348 139.497 62.9684C139.477 62.8988 139.443 62.834 139.394 62.7744C139.344 62.7147 139.274 62.6587 139.183 62.6054C139.094 62.5525 138.981 62.5044 138.843 62.4615L137.007 61.9148C136.869 61.875 136.709 61.8186 136.525 61.7458C136.345 61.673 136.17 61.5685 136 61.4325C135.829 61.2969 135.687 61.118 135.572 60.8957C135.461 60.6707 135.405 60.3872 135.405 60.0461C135.405 59.5658 135.525 59.1662 135.764 58.8482C136.003 58.5301 136.322 58.2935 136.722 58.1377C137.121 57.9818 137.563 57.9059 138.048 57.909C138.536 57.9158 138.971 58.0001 139.354 58.1623C139.737 58.3249 140.058 58.5619 140.317 58.8732C140.576 59.1813 140.763 59.559 140.877 60.0063L139.433 60.2548C139.381 60.023 139.284 59.8274 139.143 59.6684C139.002 59.5093 138.834 59.3885 138.637 59.3054C138.444 59.2227 138.241 59.1782 138.028 59.1714C137.819 59.1646 137.621 59.1945 137.434 59.2609C137.251 59.3237 137.1 59.4167 136.982 59.5392C136.867 59.6616 136.81 59.8075 136.81 59.9765C136.81 60.1324 136.858 60.2596 136.953 60.359C137.047 60.4552 137.167 60.5331 137.311 60.5928C137.455 60.6524 137.603 60.7021 137.753 60.7419L138.981 61.0798C139.165 61.1295 139.368 61.1959 139.59 61.2786C139.813 61.3581 140.026 61.4707 140.229 61.6166C140.435 61.7589 140.603 61.9478 140.735 62.1831C140.869 62.4185 140.936 62.7167 140.936 63.0777C140.936 63.4622 140.856 63.7982 140.695 64.0864C140.538 64.3715 140.325 64.6084 140.057 64.7973C139.788 64.983 139.484 65.1221 139.143 65.2148C138.806 65.3074 138.457 65.3539 138.097 65.3539ZM141.524 65.2048L143.686 58.0482H145.68L147.841 65.2048H146.466L144.54 58.8931H144.796L142.9 65.2048H141.524ZM142.821 63.7139V62.4515H146.554V63.7139H142.821ZM148.721 65.2048V58.0482H151.707C151.776 58.0482 151.868 58.0514 151.982 58.0581C152.1 58.0613 152.205 58.0713 152.297 58.088C152.719 58.1544 153.064 58.2951 153.333 58.5102C153.605 58.7257 153.805 58.9973 153.932 59.3253C154.06 59.6501 154.124 60.0131 154.124 60.4139C154.124 60.8146 154.059 61.1792 153.927 61.5072C153.8 61.8321 153.6 62.102 153.328 62.3171C153.06 62.5326 152.716 62.6734 152.297 62.7398C152.205 62.7529 152.1 62.7628 151.982 62.7696C151.864 62.7763 151.773 62.7795 151.707 62.7795H150.057V65.2048H148.721ZM150.057 61.5172H151.648C151.717 61.5172 151.793 61.514 151.874 61.5072C151.956 61.5005 152.031 61.4874 152.1 61.4675C152.281 61.4178 152.42 61.3351 152.518 61.219C152.616 61.0997 152.683 60.9689 152.719 60.8262C152.758 60.6806 152.778 60.5431 152.778 60.4139C152.778 60.2846 152.758 60.1487 152.719 60.0063C152.683 59.8604 152.616 59.7296 152.518 59.6139C152.42 59.4942 152.281 59.41 152.1 59.3603C152.031 59.3404 151.956 59.3272 151.874 59.3205C151.793 59.3137 151.717 59.3106 151.648 59.3106H150.057V61.5172ZM157.684 62.541C157.33 62.541 156.998 62.473 156.687 62.337C156.376 62.2014 156.102 62.0142 155.866 61.7756C155.631 61.5339 155.446 61.2556 155.311 60.9407C155.177 60.6258 155.11 60.2878 155.11 59.9268C155.11 59.569 155.177 59.2326 155.311 58.9177C155.446 58.6032 155.631 58.3265 155.866 58.088C156.102 57.8494 156.376 57.6621 156.687 57.5262C156.998 57.3906 157.33 57.3226 157.684 57.3226C158.041 57.3226 158.375 57.3906 158.686 57.5262C158.997 57.6621 159.27 57.8494 159.506 58.088C159.745 58.3265 159.932 58.6032 160.066 58.9177C160.2 59.2326 160.267 59.569 160.267 59.9268C160.267 60.2878 160.2 60.6258 160.066 60.9407C159.932 61.2556 159.745 61.5339 159.506 61.7756C159.27 62.0142 158.997 62.2014 158.686 62.337C158.375 62.473 158.041 62.541 157.684 62.541ZM157.694 61.6663C158.005 61.6663 158.29 61.5868 158.548 61.4277C158.81 61.2687 159.02 61.0584 159.177 60.7963C159.334 60.5316 159.413 60.2417 159.413 59.9268C159.413 59.6056 159.334 59.3137 159.177 59.0521C159.02 58.7869 158.81 58.5766 158.548 58.4207C158.29 58.2653 158.005 58.1874 157.694 58.1874C157.376 58.1874 157.086 58.2653 156.824 58.4207C156.565 58.5766 156.359 58.7869 156.205 59.0521C156.052 59.3137 155.975 59.6056 155.975 59.9268C155.975 60.2417 156.052 60.5316 156.205 60.7963C156.359 61.0584 156.565 61.2687 156.824 61.4277C157.086 61.5868 157.376 61.6663 157.694 61.6663ZM156.868 61.1096V58.744H157.851C158.103 58.744 158.298 58.8152 158.435 58.9575C158.573 59.1002 158.646 59.2907 158.656 59.5292C158.656 59.6716 158.624 59.8044 158.558 59.9268C158.492 60.0461 158.391 60.1455 158.254 60.225L158.686 61.1096H158.185L157.802 60.3045H157.31V61.1096H156.868ZM157.31 59.8871H157.87C157.969 59.8871 158.049 59.8541 158.111 59.7877C158.173 59.7181 158.204 59.6318 158.204 59.5292C158.204 59.4131 158.177 59.3253 158.121 59.2656C158.068 59.2028 157.985 59.1714 157.87 59.1714H157.31V59.8871Z" fill="white"/>
<path d="M127.072 19.2819V19.2951L126.001 23.9948C125.943 24.2607 125.68 24.4551 125.377 24.4551H124.082C124.036 24.4553 123.99 24.4707 123.953 24.499C123.916 24.5273 123.888 24.567 123.875 24.6122C122.681 28.7056 121.065 31.5188 118.929 33.2079C117.114 34.6462 114.875 35.317 111.884 35.317C109.196 35.317 107.385 34.4438 105.847 32.7194C103.816 30.4411 102.977 26.7103 103.486 22.216C104.402 13.7785 108.733 5.26434 117.072 5.26434C119.608 5.24219 121.6 6.03288 122.985 7.61119C124.45 9.28119 125.194 11.7952 125.198 15.0868C125.194 15.2311 125.135 15.3683 125.033 15.4691C124.931 15.57 124.793 15.6265 124.65 15.6267H118.541C118.433 15.6234 118.332 15.5787 118.256 15.5019C118.181 15.4251 118.138 15.322 118.135 15.2138C118.085 12.9374 117.417 11.8295 116.09 11.8295C113.747 11.8295 112.366 15.0425 111.633 16.8233C110.61 19.3112 110.089 22.0136 110.191 24.7049C110.24 25.9579 110.44 27.7195 111.616 28.4498C112.66 29.0964 114.149 28.6673 115.051 27.9512C115.952 27.234 116.678 25.9941 116.983 24.863C117.026 24.7059 117.029 24.584 116.988 24.5296C116.945 24.4732 116.826 24.4601 116.736 24.4601H115.167C115.084 24.4604 115.002 24.4423 114.926 24.4072C114.851 24.372 114.784 24.3206 114.73 24.2567C114.689 24.2067 114.66 24.1479 114.645 24.0846C114.63 24.0214 114.629 23.9555 114.644 23.892L115.716 19.1843C115.769 18.9435 115.985 18.7612 116.251 18.729V18.7169H126.547C126.571 18.7169 126.596 18.7169 126.619 18.7219C126.886 18.7572 127.074 19.008 127.069 19.2819H127.072Z" fill="white"/>
<path d="M144.799 13.8812C144.794 14.0244 144.735 14.1602 144.633 14.2598C144.531 14.3594 144.394 14.4151 144.253 14.415H138.625C138.256 14.415 137.948 14.1129 137.948 13.7452C137.948 12.0863 137.381 11.2785 136.218 11.2785C135.056 11.2785 134.307 11.9997 134.285 13.2598C134.26 14.6648 135.046 15.942 137.285 18.1357C140.232 20.9298 141.413 23.4045 141.356 26.676C141.264 31.966 137.704 35.3855 132.288 35.3855C129.522 35.3855 127.41 34.6382 126.004 33.1636C124.578 31.6658 123.924 29.4681 124.061 26.6317C124.065 26.4883 124.125 26.3524 124.227 26.2527C124.329 26.1531 124.466 26.0975 124.608 26.0979H130.428C130.509 26.0992 130.589 26.1187 130.662 26.1549C130.735 26.1911 130.799 26.2432 130.849 26.3074C130.893 26.3604 130.925 26.4225 130.944 26.4892C130.962 26.5559 130.966 26.6258 130.955 26.6942C130.89 27.7175 131.066 28.482 131.465 28.905C131.72 29.179 132.076 29.318 132.52 29.318C133.595 29.318 134.225 28.5505 134.249 27.2129C134.269 26.0566 133.907 25.0433 131.935 22.9936C129.389 20.4796 127.105 17.8819 127.176 13.7976C127.218 11.4286 128.149 9.26206 129.799 7.69683C131.543 6.04293 133.928 5.16867 136.696 5.16867C139.471 5.18883 141.572 5.98854 142.945 7.54574C144.245 9.02132 144.869 11.1526 144.801 13.8812H144.799Z" fill="white"/>
<path d="M162.241 34.3904L162.278 6.25548C162.279 6.18503 162.266 6.11505 162.24 6.04969C162.214 5.98432 162.175 5.92492 162.126 5.87491C162.077 5.82489 162.019 5.78529 161.954 5.75845C161.89 5.73162 161.821 5.71806 161.751 5.71861H153.042C152.749 5.71861 152.62 5.97343 152.536 6.14165L139.926 34.2182V34.2232L139.921 34.2303C139.781 34.5757 140.047 34.9454 140.416 34.9454H146.504C146.833 34.9454 147.051 34.8447 147.158 34.6352L148.367 31.6991C148.516 31.3073 148.543 31.271 148.966 31.271H154.783C155.188 31.271 155.195 31.2791 155.189 31.6789L155.059 34.4085C155.058 34.4789 155.071 34.5488 155.097 34.6141C155.123 34.6794 155.162 34.7387 155.21 34.7888C155.259 34.8387 155.318 34.8784 155.382 34.9052C155.446 34.9322 155.516 34.9458 155.585 34.9454H161.736C161.812 34.9463 161.887 34.9304 161.957 34.8987C162.026 34.8671 162.088 34.8204 162.138 34.7621C162.181 34.7114 162.212 34.6519 162.23 34.5877C162.248 34.5236 162.252 34.4562 162.241 34.3904ZM151.467 24.997C151.421 24.9972 151.375 24.9955 151.329 24.9919C151.308 24.9902 151.287 24.9837 151.269 24.9729C151.25 24.9622 151.234 24.9475 151.222 24.9298C151.209 24.9122 151.201 24.892 151.197 24.8707C151.193 24.8494 151.194 24.8275 151.2 24.8066C151.212 24.7663 151.229 24.7109 151.253 24.6434L155.615 13.7372C155.654 13.6295 155.699 13.5243 155.751 13.4219C155.821 13.2749 155.907 13.2648 155.934 13.3735C155.957 13.4642 155.434 24.5719 155.434 24.5719C155.393 24.9879 155.374 25.005 154.968 25.0393L151.471 24.999H151.463L151.467 24.997Z" fill="white"/>
<path d="M174.648 5.71863H170.025C169.78 5.71863 169.506 5.84955 169.442 6.14369L163.008 34.3763C162.993 34.44 162.994 34.506 163.01 34.5694C163.024 34.6328 163.054 34.6918 163.095 34.7419C163.149 34.8057 163.216 34.857 163.291 34.8921C163.366 34.9272 163.448 34.9454 163.531 34.9454H169.31C169.621 34.9454 169.833 34.7913 169.891 34.5244L170.593 31.3244C170.642 31.0746 170.557 30.8812 170.335 30.7644C170.232 30.7104 170.128 30.6559 170.025 30.6012L169.023 30.0744L168.026 29.5486L167.64 29.3462C167.609 29.3304 167.582 29.3059 167.564 29.2756C167.546 29.2453 167.537 29.2104 167.538 29.175C167.539 29.1225 167.56 29.0727 167.598 29.0361C167.635 28.9996 167.685 28.9793 167.737 28.9796L170.904 28.9937C171.851 28.9987 172.798 28.9312 173.73 28.758C180.289 27.5342 184.644 22.2261 184.77 15.0033C184.877 8.83904 181.473 5.71561 174.653 5.71561L174.648 5.71863ZM173.074 22.5192H172.951C172.673 22.5192 172.624 22.489 172.616 22.4789C172.611 22.4719 174.442 14.3476 174.443 14.3365C174.49 14.1018 174.488 13.9668 174.344 13.8872C174.161 13.7845 171.487 12.3603 171.487 12.3603C171.456 12.3438 171.43 12.3188 171.413 12.2882C171.395 12.2576 171.386 12.2225 171.387 12.1871C171.388 12.1353 171.41 12.0861 171.446 12.05C171.483 12.0139 171.532 11.9936 171.583 11.9937H175.81C177.126 12.034 177.86 13.2235 177.825 15.2551C177.764 18.7713 176.109 22.3953 173.074 22.5192Z" fill="white"/>
</svg>
