<svg width="32" height="32" viewBox="0 0 32 32" fill="none" xmlns="http://www.w3.org/2000/svg">
  <path d="M29.024 8H23.397V11.284H29.024V8Z" fill="#29AB70" />
  <path d="M29.024 12.5732H23.397V15.8572H29.024V12.5732Z" fill="url(#paint0_linear_1282_401)" />
  <path d="M29.024 17.1426H23.397V20.4266H29.024V17.1426Z" fill="url(#paint1_linear_1282_401)" />
  <path d="M8.627 21.7158H3V24.9998H8.627V21.7158Z" fill="url(#paint2_linear_1282_401)" />
  <path d="M15.425 21.7158H9.79797V24.9998H15.425V21.7158Z" fill="url(#paint3_linear_1282_401)" />
  <path d="M22.225 21.7158H16.6V24.9998H22.226V21.7158H22.225Z" fill="url(#paint4_linear_1282_401)" />
  <path d="M29.024 21.7158H23.397V24.9998H29.024V21.7158Z" fill="url(#paint5_linear_1282_401)" />
  <path d="M22.225 17.1426H16.6V20.4266H22.226V17.1426H22.225Z" fill="url(#paint6_linear_1282_401)" />
  <path d="M15.425 17.1426H9.79797V20.4266H15.425V17.1426Z" fill="url(#paint7_linear_1282_401)" />
  <path d="M15.425 12.5732H9.79797V15.8572H15.425V12.5732Z" fill="url(#paint8_linear_1282_401)" />
  <defs>
    <linearGradient id="paint0_linear_1282_401" x1="26.576" y1="16.2872" x2="25.844" y2="12.1402" gradientUnits="userSpaceOnUse">
      <stop stop-color="#2C8C9D" />
      <stop offset="0.04" stop-color="#298E9A" />
      <stop offset="0.39" stop-color="#129C83" />
      <stop offset="0.72" stop-color="#05A475" />
      <stop offset="1" stop-color="#00A770" />
    </linearGradient>
    <linearGradient id="paint1_linear_1282_401" x1="23.313" y1="20.2616" x2="29.108" y2="17.3086" gradientUnits="userSpaceOnUse">
      <stop stop-color="#2839BA" />
      <stop offset="1" stop-color="#148CB3" />
    </linearGradient>
    <linearGradient id="paint2_linear_1282_401" x1="3" y1="23.3568" x2="8.627" y2="23.3568" gradientUnits="userSpaceOnUse">
      <stop stop-color="#F6A500" />
      <stop offset="1" stop-color="#F29100" />
    </linearGradient>
    <linearGradient id="paint3_linear_1282_401" x1="9.79797" y1="23.3568" x2="15.425" y2="23.3568" gradientUnits="userSpaceOnUse">
      <stop stop-color="#F29100" />
      <stop offset="1" stop-color="#D12F5F" />
    </linearGradient>
    <linearGradient id="paint4_linear_1282_401" x1="16.599" y1="23.3568" x2="22.225" y2="23.3568" gradientUnits="userSpaceOnUse">
      <stop stop-color="#B4197C" />
      <stop offset="1" stop-color="#472EAD" />
    </linearGradient>
    <linearGradient id="paint5_linear_1282_401" x1="23.397" y1="23.3568" x2="29.024" y2="23.3568" gradientUnits="userSpaceOnUse">
      <stop stop-color="#2839BA" />
      <stop offset="1" stop-color="#3072B7" />
    </linearGradient>
    <linearGradient id="paint6_linear_1282_401" x1="16.377" y1="19.6716" x2="22.445" y2="17.8976" gradientUnits="userSpaceOnUse">
      <stop stop-color="#B4197C" />
      <stop offset="1" stop-color="#373AAC" />
    </linearGradient>
    <linearGradient id="paint7_linear_1282_401" x1="9.60097" y1="17.6896" x2="15.624" y2="19.8806" gradientUnits="userSpaceOnUse">
      <stop stop-color="#FFCB00" />
      <stop offset="1" stop-color="#D12F5F" />
    </linearGradient>
    <linearGradient id="paint8_linear_1282_401" x1="10.274" y1="12.0562" x2="14.949" y2="16.3712" gradientUnits="userSpaceOnUse">
      <stop stop-color="#FFCF00" />
      <stop offset="1" stop-color="#ED743B" />
    </linearGradient>
  </defs>
</svg>
  